<svg width="25" height="25" viewBox="0 0 25 25" fill="none" xmlns="http://www.w3.org/2000/svg">
<path fill-rule="evenodd" clip-rule="evenodd" d="M12.5 0C19.4036 0 25 5.59639 25 12.5C25 19.4035 19.4036 25 12.5 25C5.59646 25 0 19.4035 0 12.5C0 5.59639 5.59646 0 12.5 0ZM13.7527 11.25H11.2527V18.75H13.7527V11.25ZM12.5127 5.9375C11.6013 5.9375 10.9402 6.59494 10.9402 7.48266C10.9402 8.4063 11.5839 9.0625 12.5127 9.0625C13.4054 9.0625 14.0652 8.4063 14.0652 7.5C14.0652 6.59494 13.4054 5.9375 12.5127 5.9375Z" fill="#DC510A"/>
</svg>
