<svg width="25" height="25" viewBox="0 0 25 25" fill="none" xmlns="http://www.w3.org/2000/svg">
<g clip-path="url(#clip0_451_921)">
<path d="M17.6265 14.0176L12.5 18.7499L7.3734 14.0176C4.51767 15.8441 2.60413 19.14 2.60413 22.9165H22.3958C22.3958 19.14 20.4823 15.8441 17.6265 14.0176Z" fill="#DC510A"/>
<path d="M12.5 14.583C14.349 14.583 16.0047 13.7757 17.149 12.4997C18.1411 11.3934 18.75 9.93613 18.75 8.33301C18.75 4.88145 15.9516 2.08301 12.5 2.08301C9.04844 2.08301 6.25 4.88145 6.25 8.33301C6.25 9.93613 6.85885 11.3934 7.85104 12.4997C8.99531 13.7757 10.651 14.583 12.5 14.583Z" fill="#DC510A"/>
</g>
<defs>
<clipPath id="clip0_451_921">
<rect width="25" height="25" fill="white"/>
</clipPath>
</defs>
</svg>
