<svg width="23" height="23" viewBox="0 0 30 30" fill="none" xmlns="http://www.w3.org/2000/svg">
    <path d="M10.5076 29.9995C8.42843 29.9952 6.3969 29.2716 4.6693 27.92C2.94169 26.5683 1.59539 24.6492 0.800224 22.4047C0.00505321 20.1602 -0.20337 17.6908 0.201243 15.3081C0.605857 12.9253 1.60538 10.736 3.07374 9.01612L8.9019 2.15482C9.17989 1.82313 9.55928 1.63404 9.95661 1.62915C10.1533 1.62673 10.3486 1.66961 10.5311 1.75533C10.7137 1.84106 10.88 1.96795 11.0206 2.12877C11.1611 2.28959 11.2732 2.48118 11.3504 2.69261C11.4276 2.90404 11.4684 3.13116 11.4705 3.36101C11.4726 3.59086 11.4359 3.81894 11.3625 4.03222C11.2891 4.2455 11.1805 4.43981 11.0429 4.60405L5.1701 11.5522C3.75253 13.2084 2.95614 15.4547 2.95614 17.7969C2.95614 20.139 3.75253 22.3853 5.1701 24.0415C6.58767 25.6977 8.5103 26.6281 10.515 26.6281C12.5198 26.6281 14.4424 25.6977 15.86 24.0415L25.42 12.8723C26.2717 11.8773 26.7502 10.5276 26.7502 9.12035C26.7502 7.71307 26.2717 6.36344 25.42 5.36834C24.5682 4.37325 23.4131 3.81421 22.2085 3.81421C21.004 3.81421 19.8488 4.37325 18.9971 5.36834L8.97624 16.9891C8.83397 17.152 8.72117 17.3467 8.64455 17.5616C8.56793 17.7764 8.52904 18.007 8.53021 18.2398C8.52703 18.4755 8.56494 18.7094 8.64162 18.9274C8.7183 19.1454 8.83215 19.3429 8.97624 19.5078C9.11513 19.6786 9.28232 19.8147 9.46763 19.9076C9.65293 20.0006 9.85249 20.0485 10.0541 20.0485C10.2558 20.0485 10.4554 20.0006 10.6407 19.9076C10.826 19.8147 10.9932 19.6786 11.1321 19.5078L21.6138 7.34857C21.8924 7.02504 22.2692 6.84345 22.662 6.84345C23.0548 6.84345 23.4316 7.02504 23.7102 7.34857C23.8495 7.51005 23.9601 7.70217 24.0356 7.91384C24.1111 8.12551 24.15 8.35255 24.15 8.58186C24.15 8.81117 24.1111 9.03821 24.0356 9.24989C23.9601 9.46156 23.8495 9.65368 23.7102 9.81516L13.3028 21.9744C12.8874 22.4708 12.3913 22.8651 11.8436 23.1344C11.296 23.4036 10.7078 23.5423 10.1136 23.5423C9.51945 23.5423 8.93128 23.4036 8.38363 23.1344C7.83597 22.8651 7.33989 22.4708 6.92449 21.9744C6.50193 21.4894 6.16629 20.9109 5.93718 20.2726C5.70807 19.6344 5.59007 18.9493 5.59007 18.2572C5.59007 17.5651 5.70807 16.8799 5.93718 16.2417C6.16629 15.6035 6.50193 15.0249 6.92449 14.5399L16.9454 2.83227C17.6324 1.96145 18.463 1.26184 19.3873 0.775444C20.3115 0.289049 21.3104 0.0259069 22.3239 0.00181836C23.3374 -0.0222702 24.3446 0.193192 25.285 0.635266C26.2255 1.07734 27.0797 1.73691 27.7965 2.57436C28.5133 3.41181 29.0779 4.40987 29.4563 5.50861C29.8346 6.60735 30.0191 7.78409 29.9984 8.96818C29.9778 10.1523 29.7526 11.3193 29.3363 12.3991C28.92 13.479 28.3211 14.4494 27.5758 15.2521L18.0158 26.4212C17.0295 27.5688 15.8578 28.476 14.5689 29.0903C13.2801 29.7046 11.8996 30.0136 10.5076 29.9995Z" fill="#686868"/>
</svg>