<svg width="25" height="25" viewBox="0 0 25 25" fill="none" xmlns="http://www.w3.org/2000/svg">
<path fill-rule="evenodd" clip-rule="evenodd" d="M21.9234 18.5188C21.2547 17.6766 20.1687 16.4563 19.2391 16.3407C18.6734 16.2703 18.0234 16.7391 17.3828 17.1813C17.2578 17.2438 16.2922 17.8188 16.175 17.8532C15.5562 18.0297 14.2359 18.0813 13.4375 17.3532C12.6687 16.65 11.4531 15.3485 10.4719 14.1563C9.53437 12.9282 8.55156 11.4516 8.04843 10.5454C7.52343 9.60629 7.90156 8.3641 8.22656 7.81723C8.28593 7.71879 9.00468 6.97973 9.16562 6.80785L9.18906 6.83598C9.78437 6.33598 10.4078 5.82816 10.4781 5.27816C10.5937 4.36254 9.65781 3.02973 8.98906 2.18598C8.32031 1.34066 7.28437 -0.139025 5.87343 0.0703504C5.34218 0.148475 4.88437 0.334413 4.43281 0.6016L4.42031 0.587538C4.41093 0.593788 4.36718 0.628163 4.34531 0.64535C4.33125 0.653163 4.31875 0.65785 4.30625 0.665663L4.31093 0.671913C4.05156 0.871913 3.31093 1.42504 3.22656 1.50004C2.31093 2.3141 0.932808 4.23129 1.99843 7.67973C2.78906 10.2422 4.475 13.2516 6.77187 16.2953L6.75937 16.3063C6.87187 16.4532 6.9875 16.586 7.10468 16.7282C7.21406 16.8735 7.32187 17.0172 7.43437 17.161L7.45 17.15C9.8875 20.086 12.4437 22.4328 14.7766 23.8172C17.9172 25.6797 20.15 24.8407 21.1812 24.1735C21.2781 24.1094 22.0156 23.536 22.2656 23.3469L22.2719 23.3532C22.2812 23.3438 22.2875 23.3313 22.3 23.3219C22.3187 23.3078 22.3594 23.2766 22.3672 23.2703L22.3578 23.2579C22.7359 22.8922 23.0391 22.5016 23.2484 22.0094C23.7969 20.7141 22.5922 19.3641 21.9234 18.5188Z" fill="#222831"/>
</svg>
