<svg width="45" height="43" viewBox="0 0 45 43" fill="none" xmlns="http://www.w3.org/2000/svg">
<rect width="45" height="42.8261" rx="21.413" fill="#222831"/>
<g clip-path="url(#clip0_451_1199)">
<path d="M22.5 25.9419C24.376 25.9419 25.8967 24.4211 25.8967 22.5452C25.8967 20.6692 24.376 19.1484 22.5 19.1484C20.624 19.1484 19.1033 20.6692 19.1033 22.5452C19.1033 24.4211 20.624 25.9419 22.5 25.9419Z" stroke="white"/>
<path d="M19.9839 31.6031H25.0161C28.5499 31.6031 30.3168 31.6031 31.5861 30.7704C32.1354 30.4099 32.6072 29.9467 32.9744 29.4073C33.8225 28.1612 33.8225 26.4263 33.8225 22.9568C33.8225 19.4874 33.8225 17.7526 32.9744 16.5064C32.6072 15.9669 32.1354 15.5037 31.5861 15.1433C30.7704 14.6082 29.7494 14.417 28.1862 14.3486C27.4401 14.3486 26.7979 13.7936 26.6516 13.0754C26.4321 11.9981 25.4687 11.2227 24.3498 11.2227H20.6503C19.5313 11.2227 18.5679 11.9981 18.3484 13.0754C18.2021 13.7936 17.5599 14.3486 16.8139 14.3486C15.2506 14.417 14.2296 14.6082 13.414 15.1433C12.8645 15.5037 12.3928 15.9669 12.0256 16.5064C11.1776 17.7526 11.1776 19.4874 11.1776 22.9568C11.1776 26.4263 11.1776 28.1612 12.0256 29.4073C12.3928 29.9467 12.8645 30.4099 13.414 30.7704C14.6833 31.6031 16.4501 31.6031 19.9839 31.6031Z" stroke="white"/>
<path d="M30.4257 19.1484H29.2935" stroke="white" stroke-linecap="round"/>
</g>
<defs>
<clipPath id="clip0_451_1199">
<rect width="25" height="22.8261" fill="white" transform="translate(10 10)"/>
</clipPath>
</defs>
</svg>
