<svg width="31" height="30" viewBox="0 0 31 30" fill="none" xmlns="http://www.w3.org/2000/svg">
<g clip-path="url(#clip0_233_971)">
<path d="M15.75 1C23.4819 1 29.75 7.26802 29.75 15C29.75 22.7319 23.4819 29 15.75 29C13.5089 29 11.3933 28.4742 9.51758 27.54H9.5166C8.79418 27.1803 7.93374 27.043 7.09082 27.2686L3.75195 28.1621C3.04575 28.3511 2.39895 27.7042 2.58789 26.998L3.48145 23.6592C3.70695 22.8162 3.5698 21.955 3.20996 21.2324C2.27578 19.3567 1.75 17.2411 1.75 15C1.75 7.26802 8.01802 1 15.75 1Z" stroke="#6A6A6A" stroke-width="2"/>
<path d="M14.375 15.0005C14.375 15.7599 14.9906 16.3755 15.75 16.3755C16.5094 16.3755 17.125 15.7599 17.125 15.0005C17.125 14.2411 16.5094 13.6255 15.75 13.6255C14.9906 13.6255 14.375 14.2411 14.375 15.0005Z" fill="#6A6A6A"/>
<path d="M8.875 15.0005C8.875 15.7599 9.49061 16.3755 10.25 16.3755C11.0094 16.3755 11.625 15.7599 11.625 15.0005C11.625 14.2411 11.0094 13.6255 10.25 13.6255C9.49061 13.6255 8.875 14.2411 8.875 15.0005Z" fill="#6A6A6A"/>
<path d="M19.875 15.0005C19.875 15.7599 20.4906 16.3755 21.25 16.3755C22.0094 16.3755 22.625 15.7599 22.625 15.0005C22.625 14.2411 22.0094 13.6255 21.25 13.6255C20.4906 13.6255 19.875 14.2411 19.875 15.0005Z" fill="#6A6A6A"/>
</g>
<defs>
<clipPath id="clip0_233_971">
<rect width="30" height="30" fill="white" transform="translate(0.75)"/>
</clipPath>
</defs>
</svg>
