<svg width="30" height="30" viewBox="0 0 30 30" fill="none" xmlns="http://www.w3.org/2000/svg">
<path d="M15 28.75C22.5939 28.75 28.75 22.5939 28.75 15C28.75 7.40609 22.5939 1.25 15 1.25C7.40609 1.25 1.25 7.40609 1.25 15C1.25 17.1995 1.76647 19.2785 2.68476 21.1221C2.92879 21.6121 3.01001 22.1721 2.86854 22.7009L2.04957 25.7616C1.69406 27.0904 2.90965 28.3059 4.23835 27.9504L7.29915 27.1315C7.82791 26.99 8.38791 27.0712 8.87785 27.3153C10.7215 28.2335 12.8005 28.75 15 28.75Z" fill="#DC510A"/>
<path d="M13.625 15.0005C13.625 15.7599 14.2406 16.3755 15 16.3755C15.7594 16.3755 16.375 15.7599 16.375 15.0005C16.375 14.2411 15.7594 13.6255 15 13.6255C14.2406 13.6255 13.625 14.2411 13.625 15.0005Z" fill="white"/>
<path d="M8.125 15.0005C8.125 15.7599 8.74061 16.3755 9.5 16.3755C10.2594 16.3755 10.875 15.7599 10.875 15.0005C10.875 14.2411 10.2594 13.6255 9.5 13.6255C8.74061 13.6255 8.125 14.2411 8.125 15.0005Z" fill="white"/>
<path d="M19.125 15.0005C19.125 15.7599 19.7406 16.3755 20.5 16.3755C21.2594 16.3755 21.875 15.7599 21.875 15.0005C21.875 14.2411 21.2594 13.6255 20.5 13.6255C19.7406 13.6255 19.125 14.2411 19.125 15.0005Z" fill="white"/>
</svg>
