<svg width="25" height="25" viewBox="0 0 25 25" fill="none" xmlns="http://www.w3.org/2000/svg">
<path fill-rule="evenodd" clip-rule="evenodd" d="M23.6983 1.08901C22.2462 -0.362998 19.8921 -0.36301 18.4401 1.08901L16.3582 3.17091L6.55973 12.9693C6.40089 13.1282 6.28822 13.3272 6.23374 13.5451L4.99437 18.5026C4.88877 18.925 5.01252 19.3718 5.32036 19.6795C5.62819 19.9874 6.07497 20.1112 6.49733 20.0056L11.4548 18.7662C11.6728 18.7117 11.8717 18.599 12.0306 18.4401L21.7578 8.71302L23.9109 6.55985C25.363 5.10784 25.363 2.75366 23.9109 1.30165L23.6983 1.08901ZM20.1928 2.84174C20.6768 2.35774 21.4616 2.35774 21.9455 2.84174L22.1582 3.05438C22.6422 3.53839 22.6422 4.32312 22.1582 4.80712L20.8984 6.06697L18.9707 4.06391L20.1928 2.84174ZM17.2176 5.81696L19.1453 7.82002L10.5206 16.4447L7.90008 17.0999L8.5552 14.4794L17.2176 5.81696ZM2.47862 7.64886C2.47862 6.96438 3.03351 6.40949 3.71799 6.40949H9.91484C10.5993 6.40949 11.1542 5.85461 11.1542 5.17012C11.1542 4.48564 10.5993 3.93075 9.91484 3.93075H3.71799C1.66454 3.93075 -0.00012207 5.59541 -0.00012207 7.64886V21.2819C-0.00012207 23.3354 1.66454 25 3.71799 25H17.3511C19.4046 25 21.0692 23.3354 21.0692 21.2819V15.085C21.0692 14.4007 20.5143 13.8457 19.8298 13.8457C19.1453 13.8457 18.5904 14.4007 18.5904 15.085V21.2819C18.5904 21.9664 18.0356 22.5213 17.3511 22.5213H3.71799C3.03351 22.5213 2.47862 21.9664 2.47862 21.2819V7.64886Z" fill="#222831"/>
</svg>
