<svg width="20" height="20" viewBox="0 0 20 20" fill="none" xmlns="http://www.w3.org/2000/svg">
<path d="M3.33337 4.16667H8.33337M8.33337 4.16667C8.33337 5.08714 9.07954 5.83333 10 5.83333C10.9205 5.83333 11.6667 5.08714 11.6667 4.16667M8.33337 4.16667C8.33337 3.24619 9.07954 2.5 10 2.5C10.9205 2.5 11.6667 3.24619 11.6667 4.16667M11.6667 4.16667H16.6667M3.33337 10H13.3334M13.3334 10C13.3334 10.9205 14.0795 11.6667 15 11.6667C15.9205 11.6667 16.6667 10.9205 16.6667 10C16.6667 9.0795 15.9205 8.33333 15 8.33333C14.0795 8.33333 13.3334 9.0795 13.3334 10ZM6.66671 15.8333H16.6667M6.66671 15.8333C6.66671 14.9128 5.92052 14.1667 5.00004 14.1667C4.07957 14.1667 3.33337 14.9128 3.33337 15.8333C3.33337 16.7538 4.07957 17.5 5.00004 17.5C5.92052 17.5 6.66671 16.7538 6.66671 15.8333Z" stroke="black" stroke-linecap="round"/>
</svg>
