<svg width="24" height="35" viewBox="0 0 24 35" fill="none" xmlns="http://www.w3.org/2000/svg">
<path d="M1.22093 0C1.89523 0 2.44186 0.546635 2.44186 1.22093V4.23256L5.24295 3.67235C7.92986 3.13496 10.715 3.39067 13.2591 4.40832L13.932 4.67745C16.2516 5.60526 18.8044 5.77853 21.2281 5.17261C22.2553 4.91582 23.0801 6.02912 22.5354 6.93703L20.4542 10.4059C19.8982 11.3325 19.6202 11.7957 19.5543 12.2996C19.5269 12.5098 19.5269 12.7227 19.5543 12.9329C19.6202 13.4368 19.8982 13.9001 20.4542 14.8266L22.9947 19.061C23.5006 19.9043 23.0482 20.9967 22.0941 21.2352L21.9312 21.2759C19.0504 21.9961 16.0162 21.7902 13.2591 20.6874C10.715 19.6697 7.92986 19.4141 5.24295 19.9515L2.44186 20.5116V33.7791C2.44186 34.4533 1.89523 35 1.22093 35C0.546635 35 0 34.4533 0 33.7791V1.22093C0 0.546635 0.546635 0 1.22093 0Z" fill="#DC510A"/>
</svg>
