<svg width="65" height="65" viewBox="0 0 65 65" fill="none" xmlns="http://www.w3.org/2000/svg">
<rect width="65" height="65" rx="7" fill="#DC510A" fill-opacity="0.32"/>
<g clip-path="url(#clip0_34_496)">
<path d="M28.5236 30.7536H22.485C21.8736 30.753 21.2874 30.5099 20.855 30.0777C20.4226 29.6454 20.1793 29.0593 20.1786 28.4479V22.4843C20.1793 21.8729 20.4226 21.2868 20.855 20.8545C21.2874 20.4222 21.8736 20.1792 22.485 20.1786H28.5236C29.1349 20.1793 29.7209 20.4225 30.1531 20.8548C30.5854 21.287 30.8285 21.873 30.8293 22.4843V28.4479C30.8285 29.0592 30.5854 29.6452 30.1531 30.0774C29.7209 30.5097 29.1349 30.7528 28.5236 30.7536ZM22.485 21.9643C22.3471 21.9645 22.2149 22.0193 22.1173 22.1168C22.0197 22.2142 21.9647 22.3464 21.9643 22.4843V28.4479C21.9647 28.5858 22.0197 28.7179 22.1173 28.8154C22.2149 28.9129 22.3471 28.9677 22.485 28.9679H28.5236C28.6614 28.9677 28.7936 28.9128 28.8911 28.8154C28.9886 28.7179 29.0434 28.5857 29.0436 28.4479V22.4843C29.0434 22.3464 28.9886 22.2143 28.8911 22.1168C28.7936 22.0193 28.6614 21.9645 28.5236 21.9643H22.485Z" fill="#DC510A"/>
<path d="M28.5529 44.8215H22.5143C21.9028 44.8207 21.3166 44.5775 20.8843 44.1451C20.4519 43.7127 20.2086 43.1265 20.2079 42.515V36.5522C20.2086 35.9408 20.4519 35.3546 20.8843 34.9224C21.3167 34.4901 21.9029 34.247 22.5143 34.2465H28.5529C29.1639 34.2476 29.7496 34.4909 30.1815 34.9231C30.6134 35.3553 30.8564 35.9411 30.8572 36.5522V42.515C30.8566 43.1262 30.6137 43.7122 30.1818 44.1445C29.7498 44.5769 29.164 44.8203 28.5529 44.8215ZM22.5143 36.0322C22.3764 36.0324 22.2442 36.0872 22.1466 36.1846C22.049 36.2821 21.994 36.4143 21.9936 36.5522V42.515C21.9938 42.6531 22.0487 42.7854 22.1463 42.883C22.2439 42.9806 22.3763 43.0356 22.5143 43.0357H28.5529C28.6908 43.0354 28.823 42.9804 28.9204 42.8828C29.0179 42.7852 29.0727 42.653 29.0729 42.515V36.5522C29.0727 36.4143 29.0179 36.2822 28.9204 36.1847C28.8229 36.0872 28.6907 36.0324 28.5529 36.0322H22.5143Z" fill="#DC510A"/>
<path d="M42.5157 44.8215H36.4771C35.8656 44.8207 35.2794 44.5775 34.847 44.1451C34.4147 43.7127 34.1714 43.1265 34.1707 42.515V36.5522C34.1714 35.9408 34.4147 35.3546 34.8471 34.9224C35.2795 34.4901 35.8657 34.247 36.4771 34.2465H42.5157C43.1269 34.2472 43.713 34.4904 44.1452 34.9226C44.5774 35.3549 44.8206 35.9409 44.8214 36.5522V42.515C44.8208 43.1264 44.5777 43.7126 44.1455 44.145C43.7132 44.5774 43.1271 44.8207 42.5157 44.8215ZM36.4771 36.0357C36.3392 36.0359 36.2069 36.0908 36.1093 36.1882C36.0118 36.2857 35.9567 36.4178 35.9564 36.5557V42.5186C35.9566 42.6566 36.0115 42.789 36.1091 42.8866C36.2067 42.9842 36.339 43.0391 36.4771 43.0393H42.5157C42.6536 43.0389 42.7857 42.9839 42.8832 42.8863C42.9806 42.7888 43.0355 42.6565 43.0357 42.5186V36.5522C43.0355 36.4143 42.9806 36.2822 42.8831 36.1847C42.7857 36.0872 42.6535 36.0324 42.5157 36.0322L36.4771 36.0357Z" fill="#DC510A"/>
<path d="M39.5 30.7535C38.4563 30.7458 37.4382 30.4292 36.5742 29.8437C35.7101 29.2582 35.0388 28.43 34.6447 27.4635C34.2507 26.497 34.1516 25.4355 34.3599 24.4128C34.5683 23.39 35.0748 22.4519 35.8156 21.7166C36.5563 20.9813 37.4982 20.4818 38.5224 20.281C39.5467 20.0802 40.6074 20.1871 41.571 20.5883C42.5345 20.9895 43.3577 21.667 43.9368 22.5354C44.5159 23.4037 44.8249 24.4241 44.825 25.4678C44.818 26.8743 44.2535 28.2207 43.2552 29.2115C42.257 30.2024 40.9065 30.757 39.5 30.7535ZM39.5 21.9678C38.8095 21.9756 38.1367 22.1874 37.5663 22.5767C36.9959 22.9659 36.5534 23.5152 36.2945 24.1554C36.0356 24.7956 35.9719 25.4981 36.1114 26.1744C36.2508 26.8507 36.5872 27.4707 37.0782 27.9562C37.5692 28.4418 38.1929 28.7713 38.8708 28.9032C39.5486 29.0351 40.2503 28.9635 40.8876 28.6975C41.5248 28.4314 42.0691 27.9829 42.452 27.4082C42.8349 26.8335 43.0392 26.1584 43.0393 25.4678C43.0336 24.5342 42.6577 23.6409 41.9942 22.9841C41.3307 22.3272 40.4336 21.9604 39.5 21.9643V21.9678Z" fill="#DC510A"/>
</g>
<defs>
<clipPath id="clip0_34_496">
<rect width="25" height="25" fill="white" transform="translate(20 20)"/>
</clipPath>
</defs>
</svg>
