<svg width="25" height="25" viewBox="0 0 25 25" fill="none" xmlns="http://www.w3.org/2000/svg">
<path d="M17.9883 1.01074L18.0215 1.01367H18.0557C19.7736 1.0137 21.4719 1.81563 22.6094 3.41797C23.7463 5.01956 24.3834 7.51406 23.75 10.9727C23.1356 14.3286 20.3125 17.5962 17.4473 20.1094C16.0396 21.344 14.6704 22.3552 13.6523 23.0576C13.1812 23.3826 12.7863 23.6398 12.5 23.8223C12.2137 23.6398 11.8188 23.3826 11.3477 23.0576C10.3296 22.3552 8.96039 21.344 7.55273 20.1094C4.68746 17.5962 1.8644 14.3286 1.25 10.9727C0.616611 7.51406 1.25369 5.01956 2.39062 3.41797C3.52811 1.81563 5.22639 1.0137 6.94434 1.01367H6.97852L7.01172 1.01074C7.9129 0.950005 8.81622 1.14271 9.62988 1.57324C10.444 2.00407 11.1423 2.66018 11.6494 3.47949L12.5 4.85254L13.3506 3.47949C13.8577 2.66017 14.556 2.00407 15.3701 1.57324C16.1838 1.14271 17.0871 0.950005 17.9883 1.01074Z" stroke="#DC510A" stroke-width="2"/>
</svg>
