<svg width="30" height="30" viewBox="0 0 30 30" fill="none" xmlns="http://www.w3.org/2000/svg">
<path d="M21.5996 1.01367L21.6328 1.01562H21.667C23.7924 1.01572 25.892 2.00905 27.2949 3.98535C28.6974 5.96097 29.4637 9.01273 28.6963 13.2031C27.9459 17.3018 24.5113 21.2624 21.0684 24.2822C19.372 25.7701 17.7223 26.9881 16.4961 27.834C15.8838 28.2564 15.3785 28.5848 15.0283 28.8066C15.0188 28.8127 15.0093 28.8184 15 28.8242C14.9907 28.8184 14.9812 28.8127 14.9717 28.8066C14.6215 28.5848 14.1162 28.2564 13.5039 27.834C12.2777 26.9881 10.628 25.7701 8.93164 24.2822C5.48865 21.2624 2.05409 17.3018 1.30371 13.2031C0.536306 9.01273 1.30262 5.96097 2.70508 3.98535C4.10804 2.00905 6.20764 1.01572 8.33301 1.01562H8.36719L8.40039 1.01367C9.5192 0.938256 10.6397 1.1773 11.6484 1.71094C12.6577 2.24497 13.5227 3.05692 14.1494 4.06934L15 5.44336L15.8506 4.06934C16.4773 3.05692 17.3423 2.24497 18.3516 1.71094C19.3603 1.1773 20.4808 0.938256 21.5996 1.01367Z" stroke="#6A6A6A" stroke-width="2"/>
</svg>
