<svg width="25" height="25" viewBox="0 0 25 25" fill="none" xmlns="http://www.w3.org/2000/svg">
<path d="M12.5 25C5.59625 25 0 19.4037 0 12.5C0 5.59625 5.59625 0 12.5 0C19.4037 0 25 5.59625 25 12.5C25 19.4037 19.4037 25 12.5 25ZM7.4 9.0425V9.17C7.4 9.33576 7.46585 9.49473 7.58306 9.61194C7.70027 9.72915 7.85924 9.795 8.025 9.795H9.27125C9.35316 9.795 9.43427 9.77886 9.50995 9.74752C9.58562 9.71617 9.65439 9.67023 9.71231 9.61231C9.77023 9.55439 9.81617 9.48562 9.84752 9.40995C9.87887 9.33427 9.895 9.25316 9.895 9.17125C9.895 7.55875 11.1425 6.6975 12.82 6.6975C14.455 6.6975 15.53 7.55875 15.53 8.785C15.53 9.945 14.9275 10.4837 13.4225 11.1725L12.9925 11.365C11.7237 11.925 11.25 12.7625 11.25 14.2262V14.375C11.25 14.5408 11.3158 14.6997 11.4331 14.8169C11.5503 14.9342 11.7092 15 11.875 15H13.1212C13.2032 15 13.2843 14.9839 13.3599 14.9525C13.4356 14.9212 13.5044 14.8752 13.5623 14.8173C13.6202 14.7594 13.6662 14.6906 13.6975 14.6149C13.7289 14.5393 13.745 14.4582 13.745 14.3762C13.745 13.7312 13.9175 13.4725 14.4325 13.2362L14.8637 13.0425C16.67 12.225 18.025 11.15 18.025 8.805V8.67625C18.025 6.20375 15.875 4.375 12.82 4.375C9.7225 4.375 7.4 6.16 7.4 9.0425ZM10.625 18.7387C10.625 19.8225 11.4487 20.625 12.4887 20.625C13.5512 20.625 14.375 19.8225 14.375 18.7387C14.375 17.655 13.5512 16.875 12.4887 16.875C11.4487 16.875 10.625 17.655 10.625 18.7387Z" fill="#DC510A"/>
</svg>
