<svg width="30" height="30" viewBox="0 0 30 30" fill="none" xmlns="http://www.w3.org/2000/svg">
<path fill-rule="evenodd" clip-rule="evenodd" d="M0.503051 8.81242C-0.307639 10.5034 -0.0230596 12.4812 0.5461 16.4368L0.964255 19.3428C1.69537 24.424 2.06094 26.9646 3.82354 28.4823C5.58613 30 8.17105 30 13.3408 30H16.6591C21.8289 30 24.4138 30 26.1765 28.4823C27.939 26.9646 28.3045 24.424 29.0358 19.3428L29.4538 16.4368C30.0231 12.4812 30.3076 10.5034 29.4969 8.81242C28.6863 7.1214 26.9607 6.09351 23.5096 4.03771L21.4323 2.8003C18.2985 0.933435 16.7314 0 15 0C13.2685 0 11.7016 0.933435 8.56762 2.8003L6.49036 4.03771C3.03928 6.09351 1.31374 7.1214 0.503051 8.81242ZM9.37515 23.9997C9.37515 23.3784 9.87883 22.8747 10.5001 22.8747H19.5001C20.1214 22.8747 20.6251 23.3784 20.6251 23.9997C20.6251 24.621 20.1214 25.1247 19.5001 25.1247H10.5001C9.87883 25.1247 9.37515 24.621 9.37515 23.9997Z" fill="#DC510A"/>
</svg>
