<svg width="30" height="30" viewBox="0 0 30 30" fill="none" xmlns="http://www.w3.org/2000/svg">
<path d="M15 1C15.6685 1 16.3444 1.17552 17.2676 1.60645C18.2112 2.04694 19.337 2.71564 20.9209 3.65918L22.998 4.89648C24.7422 5.93547 25.9816 6.67599 26.8926 7.36133C27.7841 8.03208 28.2837 8.59632 28.5947 9.24512C28.9056 9.89351 29.031 10.6329 28.9932 11.7412C28.9545 12.8743 28.7516 14.2947 28.4639 16.2939V16.2949L28.0459 19.2002C27.6766 21.7665 27.4115 23.5979 27.0293 24.9824C26.6547 26.3391 26.1985 27.144 25.5244 27.7246C24.8493 28.3059 23.98 28.6417 22.5713 28.8184C21.1351 28.9985 19.2699 29 16.6592 29H13.3408C10.7301 29 8.86487 28.9985 7.42871 28.8184C6.02001 28.6417 5.15065 28.3059 4.47559 27.7246C3.80142 27.144 3.34527 26.3391 2.9707 24.9824C2.58849 23.5979 2.32336 21.7665 1.9541 19.2002L1.53613 16.2939C1.24847 14.2947 1.0455 12.8743 1.00684 11.7412C0.969033 10.6331 1.09361 9.89342 1.4043 9.24512C1.71535 8.59629 2.21593 8.03208 3.10742 7.36133C4.01838 6.67599 5.25781 5.93546 7.00195 4.89648L9.0791 3.65918C10.663 2.71563 11.7887 2.04694 12.7324 1.60645C13.6557 1.17552 14.3315 1 15 1ZM10.5 21.875C9.32646 21.8751 8.375 22.8265 8.375 24C8.37516 25.1734 9.32656 26.1249 10.5 26.125H19.5C20.6735 26.125 21.6248 25.1734 21.625 24C21.625 22.8264 20.6736 21.875 19.5 21.875H10.5Z" stroke="#6A6A6A" stroke-width="2"/>
</svg>
