<svg width="25" height="25" viewBox="0 0 25 25" fill="none" xmlns="http://www.w3.org/2000/svg">
<path d="M6.9196 11.5701H16.2202V3.19959C16.2202 2.95292 16.1222 2.71636 15.9478 2.54194C15.7734 2.36752 15.5368 2.26953 15.2901 2.26953H1.33924C1.09257 2.26953 0.856008 2.36752 0.681588 2.54194C0.507168 2.71636 0.40918 2.95292 0.40918 3.19959V21.8008C0.40918 22.0474 0.507168 22.284 0.681588 22.4584C0.856008 22.6329 1.09257 22.7308 1.33924 22.7308H15.2901C15.5368 22.7308 15.7734 22.6329 15.9478 22.4584C16.1222 22.284 16.2202 22.0474 16.2202 21.8008V13.4302H6.9196V11.5701Z" fill="#DC510A"/>
<path d="M24.3181 11.8415L19.0104 6.5332L17.6949 7.84866L21.4152 11.5689H16.2202V13.429H21.4152L17.6949 17.1493L19.0104 18.4647L24.3181 13.1564C24.4924 12.982 24.5903 12.7455 24.5903 12.499C24.5903 12.2524 24.4924 12.0159 24.3181 11.8415Z" fill="#DC510A"/>
</svg>
