<svg width="23" height="23" viewBox="0 0 30 30" fill="none" xmlns="http://www.w3.org/2000/svg">
    <path d="M15.25 0C18.2624 0 20.75 2.4876 20.75 5.5V12.5C20.75 15.5124 18.2624 18 15.25 18H14.75C11.7376 18 9.25 15.5124 9.25 12.5V5.5C9.25 2.4876 11.7376 0 14.75 0H15.25ZM15.25 4H14.75C13.8844 4 13.25 4.63441 13.25 5.5V12.5C13.25 13.3656 13.8844 14 14.75 14H15.25C16.1156 14 16.75 13.3656 16.75 12.5V5.5C16.75 4.63441 16.1156 4 15.25 4Z" fill="#686868" stroke="#686868" stroke-width="0.00212" stroke-linecap="round" stroke-linejoin="round"/>
    <path d="M24 10C24.5304 10 25.0391 10.2107 25.4142 10.5858C25.7893 10.9609 26 11.4696 26 12C26 17.3685 22.1042 21.8659 17 22.8133V26H20C20.5304 26 21.0391 26.2107 21.4142 26.5858C21.7893 26.9609 22 27.4696 22 28C22 28.5304 21.7893 29.0391 21.4142 29.4142C21.0391 29.7893 20.5304 30 20 30H17H13H10C9.46957 30 8.96086 29.7893 8.58579 29.4142C8.21071 29.0391 8 28.5304 8 28C8 27.4696 8.21071 26.9609 8.58579 26.5858C8.96086 26.2107 9.46957 26 10 26H13V22.8133C7.89577 21.8659 4 17.3685 4 12C4 11.4696 4.21071 10.9609 4.58579 10.5858C4.96086 10.2107 5.46957 10 6 10C6.53043 10 7.03914 10.2107 7.41422 10.5858C7.78929 10.9609 8 11.4696 8 12C8 15.8897 11.1103 19 15 19C18.8897 19 22 15.8897 22 12C22 11.4696 22.2107 10.9609 22.5858 10.5858C22.9609 10.2107 23.4696 10 24 10Z" fill="#686868" stroke="#686868" stroke-width="0.00212"/>
</svg>