<svg width="368" height="368" viewBox="0 0 368 368" fill="none" xmlns="http://www.w3.org/2000/svg">
<path d="M339.371 220.024V258.395C339.371 261.731 338.046 264.929 335.687 267.288C333.328 269.646 330.129 270.972 326.794 270.972H189.199C185.865 270.969 182.668 269.643 180.311 267.285C177.955 264.926 176.631 261.729 176.631 258.395V225.968L159.494 207.972L326.757 207.456C328.412 207.45 330.051 207.771 331.581 208.4C333.111 209.029 334.502 209.953 335.674 211.121C336.845 212.289 337.775 213.676 338.41 215.204C339.044 216.731 339.371 218.369 339.371 220.024Z" fill="#F5F5F5"/>
<path d="M196.908 230.7L321.772 230.121L321.754 226.285L196.899 226.864L196.908 230.7Z" fill="#E6E6E6"/>
<path d="M196.908 243.321L321.772 242.751L321.754 238.915L196.899 239.485L196.908 243.321Z" fill="#E6E6E6"/>
<path d="M246.286 251.56L196.884 251.802L196.903 255.638L246.305 255.397L246.286 251.56Z" fill="#E6E6E6"/>
<path d="M95.5143 0H176.667C177.618 0 178.559 0.187221 179.437 0.550976C180.315 0.91473 181.113 1.44789 181.785 2.12002C182.458 2.79215 182.991 3.59009 183.354 4.46827C183.718 5.34645 183.906 6.28768 183.906 7.23822V46.967C183.906 48.8867 183.143 50.7277 181.785 52.0852C180.428 53.4426 178.587 54.2052 176.667 54.2052H107.802C105.882 54.2052 104.041 53.4426 102.683 52.0852C101.326 50.7277 100.563 48.8867 100.563 46.967V5.01246L95.5143 0Z" fill="#F5F5F5"/>
<path d="M197.469 72.2555V86.5153C197.469 87.4752 197.85 88.3958 198.529 89.0745C199.207 89.7533 200.128 90.1346 201.088 90.1346H280.766C281.726 90.1346 282.646 89.7533 283.325 89.0745C284.004 88.3958 284.385 87.4752 284.385 86.5153V78.7249L293.533 68.9348L201.097 68.6362C200.621 68.6351 200.149 68.7278 199.709 68.9091C199.269 69.0905 198.869 69.3569 198.532 69.6931C198.195 70.0293 197.927 70.4287 197.745 70.8684C197.563 71.3081 197.469 71.7794 197.469 72.2555Z" fill="#F0F0F0"/>
<path d="M143.759 43.8907V69.342C143.76 70.4371 143.545 71.5217 143.127 72.5337C142.709 73.5458 142.095 74.4655 141.321 75.2402C140.547 76.015 139.628 76.6296 138.617 77.0489C137.605 77.4683 136.521 77.6841 135.426 77.6841H44.1299C43.0348 77.6841 41.9504 77.4683 40.9388 77.0489C39.9271 76.6296 39.0081 76.015 38.2341 75.2402C37.4602 74.4655 36.8465 73.5458 36.4283 72.5337C36.01 71.5217 35.7954 70.4371 35.7965 69.342V47.8445L24.4592 35.9015L135.398 35.5577C136.495 35.5541 137.582 35.767 138.596 36.1842C139.61 36.6013 140.532 37.2146 141.308 37.9887C142.085 38.7629 142.701 39.6827 143.122 40.6955C143.542 41.7083 143.759 42.7941 143.759 43.8907Z" fill="#E0E0E0"/>
<path d="M49.2783 50.9753L132.087 50.5953L132.078 48.0527L49.2693 48.4328L49.2783 50.9753Z" fill="#F0F0F0"/>
<path d="M49.2783 59.3535L132.087 58.9644L132.078 56.4219L49.2693 56.8019L49.2783 59.3535Z" fill="#F0F0F0"/>
<path d="M82.0202 64.8145L49.2573 64.9746L49.2697 67.5171L82.0326 67.357L82.0202 64.8145Z" fill="#F0F0F0"/>
<path d="M9.24928 127.881V166.262C9.24928 167.913 9.57466 169.548 10.2068 171.073C10.839 172.599 11.7655 173.984 12.9335 175.151C14.1015 176.319 15.4881 177.244 17.0139 177.875C18.5397 178.506 20.175 178.83 21.8262 178.829H159.421C161.072 178.83 162.708 178.506 164.233 177.875C165.759 177.244 167.146 176.319 168.314 175.151C169.482 173.984 170.408 172.599 171.041 171.073C171.673 169.548 171.998 167.913 171.998 166.262V133.835L189.126 115.839L21.8624 115.287C20.2062 115.282 18.5654 115.604 17.0341 116.235C15.5028 116.866 14.1113 117.794 12.9393 118.964C11.7674 120.134 10.8381 121.524 10.2049 123.054C9.57164 124.585 9.24689 126.225 9.24928 127.881Z" fill="#F0F0F0"/>
<path d="M151.712 138.558L26.8479 137.988L26.866 134.151L151.721 134.721L151.712 138.558Z" fill="#E6E6E6"/>
<path d="M151.712 151.188L26.8479 150.609L26.866 146.773L151.721 147.352L151.712 151.188Z" fill="#E6E6E6"/>
<path d="M102.313 159.402L102.294 163.239L151.696 163.48L151.715 159.644L102.313 159.402Z" fill="#E6E6E6"/>
<path d="M279.372 37.4515C283.158 29.0345 279.404 19.1419 270.987 15.3556C262.569 11.5693 252.676 15.3232 248.89 23.7402C245.103 32.1572 248.858 42.0498 257.275 45.8361C265.692 49.6224 275.585 45.8684 279.372 37.4515Z" fill="#F5F5F5"/>
<path d="M258.363 26.3833C258.987 26.3291 259.566 27.0258 259.638 27.9396C259.711 28.8535 259.267 29.6407 258.634 29.695C258.001 29.7492 257.422 29.0435 257.349 28.1296C257.277 27.2158 257.729 26.4286 258.363 26.3833Z" fill="#E0E0E0"/>
<path d="M259.828 22.1491C258.822 22.2735 257.827 22.4762 256.852 22.7553C255.928 23.1772 255.039 23.6703 254.191 24.2301C254.806 23.3488 255.675 22.6769 256.683 22.3048C257.691 21.9328 258.789 21.8784 259.828 22.1491Z" fill="#E0E0E0"/>
<path d="M268.985 26.166C268.343 26.166 267.8 26.8537 267.764 27.7766C267.727 28.6995 268.207 29.4505 268.849 29.4776C269.492 29.5048 270.026 28.7809 270.062 27.8671C270.098 26.9532 269.618 26.1841 268.985 26.166Z" fill="#E0E0E0"/>
<path d="M267.338 21.9952C268.361 21.6785 269.456 21.6821 270.476 22.0055C271.497 22.329 272.394 22.9568 273.048 23.8048C272.182 23.2749 271.274 22.8179 270.333 22.4385C269.347 22.2162 268.346 22.068 267.338 21.9952Z" fill="#E0E0E0"/>
<path d="M272.369 30.4189C272.376 30.7248 272.336 31.0298 272.251 31.3238C272.038 32.1277 271.696 32.8917 271.238 33.5858C270.582 34.6304 269.717 35.5271 268.696 36.2188C267.448 37.102 265.976 37.6134 264.45 37.6934C262.923 37.7735 261.406 37.4191 260.073 36.6712C258.982 36.086 258.024 35.2821 257.259 34.3096C256.747 33.6607 256.344 32.9336 256.064 32.1562C255.938 31.8706 255.867 31.5635 255.856 31.2514C256.291 32.2576 256.853 33.2034 257.53 34.0653C258.28 34.9667 259.203 35.7083 260.245 36.2459C261.51 36.9313 262.939 37.2542 264.376 37.1792C265.813 37.1041 267.201 36.6341 268.388 35.8207C269.378 35.1779 270.23 34.3444 270.894 33.3686C271.509 32.4517 272.004 31.4606 272.369 30.4189Z" fill="#E0E0E0"/>
<path d="M34.4937 218.431H36.8914L42.1755 211.392V206.769C42.1755 206.769 45.9124 206.551 45.4781 212.604C45.0438 218.657 45.4781 217.128 45.4781 217.128C45.4781 217.128 53.4133 217.128 54.0738 217.816C54.5534 218.295 54.7705 225.841 54.852 229.931C54.8916 230.936 54.5893 231.926 53.9945 232.737C53.3997 233.549 52.5473 234.135 51.5765 234.4C51.28 234.47 50.9764 234.507 50.6717 234.509C48.7897 234.464 38.701 232.908 38.701 232.908H34.4937V218.431Z" fill="#F0F0F0"/>
<path d="M27.5718 217.137L29.0557 232.962H33.1997V217.454L27.5718 217.137Z" fill="#F0F0F0"/>
<path d="M367.148 80.8324C366.578 80.2212 365.791 79.8573 364.956 79.8184C364.121 79.7795 363.303 80.0687 362.678 80.6243C362.058 81.121 361.554 81.748 361.202 82.4609C360.85 83.1739 360.659 83.9554 360.643 84.7502C360.496 83.9545 360.176 83.2005 359.708 82.5409C359.239 81.8814 358.631 81.3323 357.928 80.9319C357.23 80.4607 356.375 80.2803 355.545 80.4289C354.716 80.5776 353.977 81.0436 353.486 81.7281C352.955 82.6674 352.794 83.7708 353.033 84.8226C353.19 85.8839 353.634 86.882 354.318 87.709C356.824 90.3691 358.118 90.7944 361.222 92.595C364.045 90.4053 364.959 89.8805 367.076 86.8675C367.647 85.9579 367.96 84.9101 367.981 83.8364C368.082 82.7668 367.786 81.6973 367.148 80.8324Z" fill="#F0F0F0"/>
<path d="M218.053 324.951L123.88 324.507C121.187 324.497 118.522 323.956 116.038 322.915C113.554 321.874 111.299 320.354 109.403 318.442C107.506 316.529 106.005 314.262 104.985 311.77C103.965 309.277 103.446 306.608 103.458 303.915L104.463 67.8311C104.494 62.3951 106.681 57.1935 110.543 53.3682C114.406 49.543 119.629 47.4067 125.065 47.4284L219.238 47.8627C224.678 47.889 229.884 50.0738 233.713 53.9369C237.543 57.7999 239.682 63.0252 239.66 68.4645L238.665 304.521C238.638 309.962 236.452 315.171 232.588 319.002C228.723 322.833 223.495 324.972 218.053 324.951Z" fill="#222831"/>
<path d="M219.103 55.9881L200.844 55.9067C200.248 55.9161 199.66 56.0431 199.113 56.2803C198.567 56.5175 198.073 56.8604 197.659 57.2891C197.245 57.7178 196.921 58.2241 196.703 58.7787C196.486 59.3333 196.38 59.9254 196.392 60.521V63.8325C196.404 64.4281 196.298 65.0203 196.081 65.5749C195.863 66.1295 195.538 66.6357 195.125 67.0645C194.711 67.4932 194.217 67.8361 193.67 68.0733C193.124 68.3105 192.536 68.4375 191.94 68.4469L156.327 68.284C155.73 68.27 155.142 68.1381 154.597 67.8959C154.052 67.6538 153.56 67.3061 153.149 66.873C152.739 66.4399 152.418 65.9299 152.206 65.3724C151.993 64.8149 151.893 64.2208 151.911 63.6244V60.3129C151.929 59.7166 151.829 59.1225 151.617 58.565C151.404 58.0074 151.084 57.4974 150.673 57.0643C150.263 56.6313 149.771 56.2836 149.225 56.0415C148.68 55.7993 148.092 55.6674 147.496 55.6533H141.072L125.12 55.5719C123.233 55.5636 121.363 55.927 119.616 56.6413C117.87 57.3557 116.281 58.407 114.941 59.7353C113.601 61.0636 112.536 62.6429 111.806 64.3829C111.076 66.1229 110.696 67.9896 110.688 69.8764L109.711 300.305C109.696 304.115 111.195 307.775 113.877 310.481C116.559 313.187 120.206 314.717 124.016 314.736L217.999 315.171C219.886 315.179 221.756 314.816 223.502 314.101C225.249 313.387 226.837 312.335 228.177 311.007C229.518 309.679 230.583 308.1 231.313 306.36C232.042 304.62 232.422 302.753 232.431 300.866L233.408 70.4374C233.417 68.5494 233.055 66.678 232.341 64.9301C231.627 63.1821 230.576 61.5919 229.248 60.2501C227.92 58.9084 226.34 57.8414 224.599 57.1101C222.859 56.3789 220.991 55.9976 219.103 55.9881Z" fill="white"/>
<path d="M167.447 286.073C167.447 286.463 167.331 286.844 167.114 287.168C166.898 287.493 166.59 287.746 166.229 287.895C165.869 288.044 165.472 288.083 165.09 288.007C164.707 287.931 164.355 287.743 164.08 287.467C163.804 287.191 163.616 286.84 163.54 286.457C163.464 286.075 163.503 285.678 163.652 285.318C163.801 284.957 164.054 284.649 164.378 284.433C164.703 284.216 165.084 284.1 165.474 284.1C165.997 284.102 166.497 284.311 166.866 284.68C167.236 285.05 167.444 285.55 167.447 286.073Z" fill="#455A64"/>
<path d="M174.939 286.073C174.939 286.463 174.823 286.844 174.606 287.168C174.39 287.493 174.082 287.746 173.721 287.895C173.361 288.044 172.964 288.083 172.581 288.007C172.199 287.931 171.847 287.743 171.572 287.467C171.296 287.191 171.108 286.84 171.032 286.457C170.956 286.075 170.995 285.678 171.144 285.318C171.293 284.957 171.546 284.649 171.87 284.433C172.195 284.216 172.576 284.1 172.966 284.1C173.489 284.102 173.989 284.311 174.358 284.68C174.728 285.05 174.936 285.55 174.939 286.073Z" fill="#455A64"/>
<path d="M182.431 286.073C182.431 286.463 182.315 286.844 182.098 287.168C181.881 287.493 181.573 287.746 181.213 287.895C180.853 288.044 180.456 288.083 180.073 288.007C179.691 287.931 179.339 287.743 179.063 287.467C178.787 287.191 178.6 286.84 178.523 286.457C178.447 286.075 178.486 285.678 178.636 285.318C178.785 284.957 179.038 284.649 179.362 284.433C179.687 284.216 180.068 284.1 180.458 284.1C180.98 284.102 181.481 284.311 181.85 284.68C182.22 285.05 182.428 285.55 182.431 286.073Z" fill="#455A64"/>
<path d="M128.196 120.272C128.196 120.272 128.196 120.109 128.196 119.775C128.265 118.462 128.729 117.201 129.526 116.155C130.187 115.256 131.06 114.534 132.069 114.056C133.355 113.485 134.766 113.251 136.168 113.378H153.287L225.672 113.523H226.206L225.835 113.912L216.56 123.665L216.624 123.511V139.662C216.689 140.738 216.609 141.818 216.388 142.874C216.11 143.931 215.587 144.907 214.859 145.724C214.146 146.538 213.254 147.176 212.253 147.587C211.258 147.979 210.192 148.161 209.123 148.121H179.59L140.04 148.04H135.878C134.546 148.142 133.21 147.902 131.996 147.343C130.893 146.81 129.95 145.994 129.263 144.979C128.577 143.963 128.171 142.784 128.088 141.562C128.088 137.038 128.088 133.229 128.088 130.071C128.088 126.913 128.088 124.488 128.133 122.833C128.133 122.009 128.133 121.385 128.133 120.942C128.133 120.498 128.133 120.299 128.133 120.299C128.133 120.299 128.133 120.516 128.133 120.942C128.133 121.367 128.133 122.009 128.133 122.833C128.133 124.507 128.133 126.949 128.133 130.071C128.133 133.192 128.133 137.083 128.196 141.543C128.283 142.717 128.678 143.846 129.343 144.817C130.007 145.788 130.916 146.566 131.978 147.072C133.15 147.607 134.44 147.832 135.724 147.723H140.04L179.635 147.678H203.015H209.15C210.157 147.719 211.162 147.55 212.099 147.18C213.035 146.795 213.871 146.2 214.542 145.443C215.217 144.681 215.701 143.769 215.954 142.783C216.167 141.766 216.243 140.726 216.18 139.689V123.43L216.243 123.366L225.527 113.613L225.699 114.002L153.314 113.694L141.153 113.631H136.186C134.815 113.496 133.433 113.711 132.168 114.255C131.176 114.714 130.312 115.41 129.653 116.282C129.165 116.919 128.792 117.635 128.549 118.399C128.374 119.011 128.256 119.638 128.196 120.272Z" fill="#455A64"/>
<path d="M205.386 126.063L137.733 125.746L137.742 123.665L205.386 123.982V126.063Z" fill="#455A64"/>
<path d="M205.386 132.903L137.733 132.586L137.742 130.505L205.386 130.822V132.903Z" fill="#455A64"/>
<path d="M178.613 137.351L178.602 139.432L205.366 139.563L205.377 137.482L178.613 137.351Z" fill="#455A64"/>
<path d="M220.17 166.09V186.9C220.17 188.705 219.454 190.437 218.178 191.714C216.902 192.992 215.172 193.711 213.366 193.713H138.81C137.003 193.713 135.27 192.995 133.992 191.718C132.714 190.44 131.996 188.707 131.996 186.9V169.32L122.722 159.567L213.33 159.286C214.227 159.281 215.115 159.454 215.945 159.794C216.775 160.134 217.529 160.634 218.165 161.266C218.8 161.898 219.305 162.65 219.649 163.478C219.993 164.306 220.17 165.194 220.17 166.09Z" fill="#DC510A"/>
<path d="M142.99 171.881L210.643 171.564L210.634 169.483L142.981 169.8L142.99 171.881Z" fill="white"/>
<path d="M142.99 178.721L210.643 178.404L210.634 176.332L142.981 176.64L142.99 178.721Z" fill="white"/>
<path d="M169.731 183.181L142.967 183.312L142.977 185.393L169.741 185.262L169.731 183.181Z" fill="white"/>
<path d="M179.589 86.4425C180.245 86.1563 180.802 85.6821 181.188 85.0798C181.575 84.4774 181.774 83.774 181.761 83.0585C181.785 82.5939 181.714 82.1294 181.553 81.6931C181.391 81.2568 181.143 80.8579 180.823 80.5206C180.502 80.1833 180.117 79.9148 179.689 79.7313C179.262 79.5478 178.801 79.4531 178.336 79.4531C177.871 79.4531 177.411 79.5478 176.983 79.7313C176.556 79.9148 176.17 80.1833 175.85 80.5206C175.53 80.8579 175.281 81.2568 175.12 81.6931C174.959 82.1294 174.888 82.5939 174.912 83.0585C174.894 83.7796 175.092 84.4897 175.48 85.0975C175.869 85.7053 176.43 86.1831 177.092 86.4696C171.817 87.2658 172.052 93.0024 172.052 93.0024L184.53 93.0566C184.53 93.0566 184.819 87.2387 179.589 86.4425Z" fill="#DC510A"/>
<path opacity="0.5" d="M179.589 86.4425C180.245 86.1563 180.802 85.6821 181.188 85.0798C181.575 84.4774 181.774 83.774 181.761 83.0585C181.785 82.5939 181.714 82.1294 181.553 81.6931C181.391 81.2568 181.143 80.8579 180.823 80.5206C180.502 80.1833 180.117 79.9148 179.689 79.7313C179.262 79.5478 178.801 79.4531 178.336 79.4531C177.871 79.4531 177.411 79.5478 176.983 79.7313C176.556 79.9148 176.17 80.1833 175.85 80.5206C175.53 80.8579 175.281 81.2568 175.12 81.6931C174.959 82.1294 174.888 82.5939 174.912 83.0585C174.894 83.7796 175.092 84.4897 175.48 85.0975C175.869 85.7053 176.43 86.1831 177.092 86.4696C171.817 87.2658 172.052 93.0024 172.052 93.0024L184.53 93.0566C184.53 93.0566 184.819 87.2387 179.589 86.4425Z" fill="white"/>
<path d="M172.74 86.4431C173.393 86.1525 173.948 85.6776 174.335 85.0764C174.723 84.4753 174.926 83.7742 174.921 83.0591C174.955 82.5879 174.892 82.1146 174.735 81.6688C174.578 81.2231 174.331 80.8144 174.009 80.4684C173.687 80.1224 173.298 79.8464 172.865 79.6577C172.431 79.469 171.964 79.3716 171.491 79.3716C171.019 79.3716 170.551 79.469 170.118 79.6577C169.685 79.8464 169.295 80.1224 168.974 80.4684C168.652 80.8144 168.405 81.2231 168.248 81.6688C168.091 82.1146 168.028 82.5879 168.062 83.0591C168.044 83.7803 168.242 84.4903 168.631 85.0981C169.019 85.7059 169.581 86.1838 170.243 86.4703C164.968 87.2665 165.203 93.003 165.203 93.003L177.68 93.0573C177.68 93.0573 177.97 87.2394 172.74 86.4431Z" fill="#DC510A"/>
<path d="M191.82 95.5907L158.278 95.4385L158.26 99.6006L191.801 99.7528L191.82 95.5907Z" fill="#DC510A"/>
<path opacity="0.3" d="M191.82 95.5907L158.278 95.4385L158.26 99.6006L191.801 99.7528L191.82 95.5907Z" fill="white"/>
<path d="M129.761 213.473C129.745 213.311 129.745 213.147 129.761 212.985C129.816 212.496 129.973 212.024 130.223 211.601C130.638 210.898 131.274 210.354 132.033 210.053C133.081 209.767 134.172 209.672 135.254 209.773H156.001L225.862 209.918H226.396L225.997 210.289L216.859 220.097L216.922 219.934V226.494C216.922 226.982 216.922 227.399 216.922 227.941C216.885 228.704 216.62 229.438 216.162 230.049C215.704 230.661 215.074 231.121 214.352 231.371C213.878 231.532 213.378 231.605 212.878 231.588H203.133H182.042L146.374 231.515H134.168C133.644 231.544 133.119 231.513 132.603 231.425C131.874 231.267 131.209 230.894 130.693 230.356C130.178 229.818 129.834 229.138 129.707 228.403C129.654 227.956 129.635 227.505 129.653 227.055C129.653 225.327 129.653 223.752 129.653 222.332C129.653 219.5 129.653 217.301 129.698 215.781C129.698 215.048 129.698 214.487 129.698 214.08C129.698 213.673 129.698 213.501 129.698 213.501C129.698 213.501 129.698 213.7 129.698 214.08C129.698 214.46 129.698 215.048 129.698 215.781C129.698 217.301 129.698 219.5 129.743 222.332C129.743 223.752 129.743 225.327 129.743 227.055C129.728 227.49 129.749 227.926 129.807 228.358C129.926 229.044 130.248 229.68 130.732 230.181C131.216 230.683 131.839 231.028 132.521 231.172C133.021 231.247 133.527 231.271 134.032 231.244H139.135H146.374L182.078 231.19H212.905C213.35 231.206 213.794 231.142 214.217 231C215.065 230.702 215.761 230.081 216.153 229.272C216.347 228.869 216.457 228.432 216.479 227.987C216.479 227.534 216.479 227.037 216.479 226.566V219.916L216.542 219.852L225.699 210.062L225.862 210.451L156.01 210.153L135.263 210.017C134.202 209.9 133.128 209.98 132.096 210.252C131.51 210.484 130.995 210.865 130.601 211.357C130.208 211.849 129.949 212.435 129.852 213.057C129.829 213.197 129.799 213.336 129.761 213.473Z" fill="#455A64"/>
<path d="M208.417 218.956L140.764 218.648L140.773 216.567L208.426 216.884L208.417 218.956Z" fill="#455A64"/>
<path d="M180.977 223.435L180.967 225.516L208.419 225.65L208.429 223.569L180.977 223.435Z" fill="#455A64"/>
<path d="M217.791 250.588V264.838C217.791 265.798 217.409 266.719 216.731 267.398C216.052 268.076 215.131 268.458 214.171 268.458H134.494C133.534 268.458 132.613 268.076 131.934 267.398C131.256 266.719 130.874 265.798 130.874 264.838V257.048L121.727 247.258L214.171 246.968C215.131 246.968 216.052 247.35 216.731 248.028C217.409 248.707 217.791 249.628 217.791 250.588Z" fill="#DC510A"/>
<path d="M139.144 256.07L206.797 255.762L206.788 253.681L139.135 253.998L139.144 256.07Z" fill="white"/>
<path d="M139.144 262.766L206.797 262.449L206.788 260.377L139.135 260.685L139.144 262.766Z" fill="white"/>
<path d="M326.839 79.7567C332.7 79.7567 337.452 75.0049 337.452 69.1432C337.452 63.2816 332.7 58.5298 326.839 58.5298C320.977 58.5298 316.225 63.2816 316.225 69.1432C316.225 75.0049 320.977 79.7567 326.839 79.7567Z" fill="#DC510A"/>
<path opacity="0.5" d="M326.839 79.7567C332.7 79.7567 337.452 75.0049 337.452 69.1432C337.452 63.2816 332.7 58.5298 326.839 58.5298C320.977 58.5298 316.225 63.2816 316.225 69.1432C316.225 75.0049 320.977 79.7567 326.839 79.7567Z" fill="white"/>
<path d="M323.319 66.103C323.717 66.103 324.079 66.5283 324.115 67.1074C324.151 67.6865 323.853 68.1841 323.446 68.2022C323.039 68.2203 322.686 67.7769 322.649 67.1979C322.613 66.6188 322.912 66.1211 323.319 66.103Z" fill="#222831"/>
<path d="M324.305 63.4342C324.305 63.588 323.4 63.5428 322.496 63.8866C321.591 64.2304 320.858 64.7914 320.749 64.6828C320.641 64.5742 321.193 63.778 322.315 63.3799C323.437 62.9818 324.35 63.2985 324.305 63.4342Z" fill="#222831"/>
<path d="M331.996 67.7588C331.878 67.8493 331.308 67.2341 330.395 67.1436C329.481 67.0531 328.793 67.5145 328.703 67.406C328.612 67.2974 328.775 67.1436 329.074 66.9355C329.486 66.6765 329.973 66.5619 330.458 66.6097C330.941 66.6623 331.392 66.8795 331.734 67.225C331.987 67.4964 332.05 67.7136 331.996 67.7588Z" fill="#222831"/>
<path d="M332.91 65.9856C332.829 66.1123 332.005 65.6689 330.82 65.6327C329.635 65.5965 328.775 65.9584 328.703 65.8137C328.976 65.5326 329.312 65.321 329.683 65.1966C330.055 65.0723 330.451 65.0387 330.838 65.0989C332.159 65.1441 333 65.886 332.91 65.9856Z" fill="#222831"/>
<path d="M332.159 68.9346C332.164 69.6681 331.929 70.3832 331.489 70.9704C331.027 71.7444 330.377 72.3896 329.6 72.8467C328.823 73.3037 327.943 73.5579 327.042 73.5859C326.141 73.6138 325.247 73.4146 324.443 73.0066C323.639 72.5985 322.951 71.9948 322.441 71.2509C321.96 70.6965 321.682 69.9942 321.654 69.2603C321.965 69.8925 322.328 70.4978 322.74 71.0699C323.244 71.7154 323.894 72.233 324.635 72.5805C325.377 72.9281 326.19 73.0959 327.009 73.0703C327.828 73.0448 328.629 72.8266 329.348 72.4334C330.067 72.0403 330.682 71.4832 331.146 70.8075C331.527 70.2077 331.865 69.5818 332.159 68.9346Z" fill="#222831"/>
<path d="M29.8518 256.875C29.761 259.826 28.7974 262.683 27.0829 265.086C25.3683 267.49 22.9797 269.331 20.2191 270.376C17.4584 271.422 14.4496 271.626 11.573 270.963C8.6964 270.299 6.08114 268.798 4.05783 266.648C2.03451 264.498 0.693966 261.797 0.205656 258.885C-0.282655 255.974 0.103192 252.983 1.31442 250.291C2.52564 247.599 4.50787 245.326 7.01053 243.76C9.51318 242.195 12.4239 241.406 15.3748 241.494C17.3356 241.552 19.2657 241.997 21.0547 242.802C22.8437 243.606 24.4565 244.756 25.801 246.184C27.1455 247.613 28.1953 249.292 28.8904 251.127C29.5854 252.961 29.9121 254.914 29.8518 256.875Z" fill="#DC510A"/>
<path opacity="0.5" d="M29.8518 256.875C29.761 259.826 28.7974 262.683 27.0829 265.086C25.3683 267.49 22.9797 269.331 20.2191 270.376C17.4584 271.422 14.4496 271.626 11.573 270.963C8.6964 270.299 6.08114 268.798 4.05783 266.648C2.03451 264.498 0.693966 261.797 0.205656 258.885C-0.282655 255.974 0.103192 252.983 1.31442 250.291C2.52564 247.599 4.50787 245.326 7.01053 243.76C9.51318 242.195 12.4239 241.406 15.3748 241.494C17.3356 241.552 19.2657 241.997 21.0547 242.802C22.8437 243.606 24.4565 244.756 25.801 246.184C27.1455 247.613 28.1953 249.292 28.8904 251.127C29.5854 252.961 29.9121 254.914 29.8518 256.875Z" fill="white"/>
<path d="M11.9908 252.315C11.7268 251.971 11.3389 251.743 10.9097 251.681C10.4804 251.618 10.0437 251.726 9.69252 251.98C9.35269 252.209 9.06613 252.509 8.85225 252.859C8.63837 253.208 8.50219 253.6 8.45293 254.007C8.41494 253.592 8.28872 253.19 8.08273 252.828C7.87674 252.466 7.59575 252.152 7.25857 251.908C6.91955 251.636 6.48898 251.505 6.05608 251.542C5.62317 251.579 5.22112 251.782 4.9332 252.107C4.61717 252.564 4.48176 253.121 4.55318 253.672C4.58365 254.225 4.76175 254.759 5.06893 255.219C5.98779 256.369 7.11416 257.336 8.38959 258.07C9.64694 257.405 10.7626 256.501 11.6741 255.409C12.0066 254.969 12.2159 254.447 12.2803 253.898C12.3856 253.353 12.2823 252.788 11.9908 252.315Z" fill="#DC510A"/>
<path d="M25.1287 252.686C24.8648 252.341 24.4761 252.114 24.0462 252.053C23.6164 251.992 23.1798 252.102 22.8305 252.36C22.4881 252.587 22.1997 252.886 21.9855 253.236C21.7713 253.586 21.6366 253.979 21.5909 254.387C21.5529 253.972 21.4267 253.57 21.2207 253.208C21.0147 252.846 20.7337 252.532 20.3965 252.288C20.0584 252.014 19.6273 251.882 19.1937 251.919C18.7602 251.956 18.3578 252.159 18.0712 252.487C17.7535 252.943 17.618 253.501 17.6911 254.052C17.7171 254.606 17.8956 255.141 18.2069 255.599C19.1257 256.749 20.2521 257.716 21.5276 258.45C22.781 257.779 23.8956 256.876 24.812 255.789C25.1449 255.345 25.3541 254.821 25.4183 254.269C25.5218 253.724 25.4186 253.159 25.1287 252.686Z" fill="#DC510A"/>
<path d="M19.7722 260.096C19.6252 261.332 19.016 262.465 18.0672 263.27C17.1183 264.074 15.9002 264.489 14.6577 264.432C13.4152 264.374 12.2404 263.849 11.3696 262.961C10.4989 262.072 9.99666 260.887 9.96399 259.644L19.7722 260.096Z" fill="white"/>
<path d="M294.401 352.266L292.592 342.711L275.445 345.752L277.934 360.075L279.01 359.957C283.797 359.387 303.223 356.419 306.209 354.854C309.584 353.108 294.401 352.266 294.401 352.266Z" fill="#DC510A"/>
<path d="M306.526 353.904C306.526 354.066 300.192 355.378 292.266 356.835C284.34 358.292 277.933 359.342 277.906 359.179C277.879 359.016 284.24 357.713 292.157 356.256C300.074 354.799 306.471 353.75 306.526 353.904Z" fill="#222831"/>
<path d="M295.062 354.148C294.908 354.093 294.935 353.569 295.215 353.008C295.496 352.447 295.885 352.103 296.021 352.184C296.156 352.266 296.021 352.736 295.74 353.261C295.46 353.786 295.215 354.211 295.062 354.148Z" fill="#222831"/>
<path d="M296.274 354.591C296.111 354.591 296.084 353.985 296.274 353.325C296.464 352.664 296.88 352.23 297.025 352.302C297.17 352.375 297.025 352.909 296.835 353.515C296.645 354.121 296.437 354.619 296.274 354.591Z" fill="#222831"/>
<path d="M283 358.165C282.937 358.228 282.639 358.02 282.186 357.667C281.626 357.2 281.019 356.791 280.377 356.446C279.794 356.127 279.141 355.959 278.476 355.957C277.943 355.957 277.617 356.129 277.572 356.048C277.526 355.966 277.807 355.695 278.422 355.541C279.218 355.383 280.043 355.507 280.757 355.894C281.444 356.264 282.058 356.758 282.566 357.351C282.892 357.767 283.082 358.111 283 358.165Z" fill="#222831"/>
<path d="M294.763 352.338C294.872 352.456 294.636 352.845 294.184 353.116C293.732 353.388 293.279 353.406 293.225 353.252C293.171 353.098 293.487 352.845 293.885 352.6C294.283 352.356 294.673 352.229 294.763 352.338Z" fill="#222831"/>
<path d="M294.347 351.478C294.347 351.641 293.958 351.859 293.379 351.976C292.8 352.094 292.32 352.049 292.302 351.886C292.284 351.723 292.718 351.506 293.261 351.397C293.804 351.288 294.302 351.325 294.347 351.478Z" fill="#222831"/>
<path d="M315.031 251.248C309.72 240.526 281.254 199.051 281.254 199.051L266.062 200.644V200.553L249.061 202.417L239.687 203.449L273.627 351.678L297.097 351.253L291.451 323.829C295.333 314.103 317.971 257.183 315.031 251.248ZM290.818 257.645L282.43 280.165L272.93 234.021L290.818 257.645Z" fill="#222831"/>
<path d="M271.989 130.587C271.772 129.04 272.604 122.607 272.604 122.607C272.604 122.607 278.513 122.172 279.064 116.346C279.616 110.519 279.68 97.0285 279.68 97.0285L269.121 91.437L257.023 99.9962L253.893 108.139L258.019 118.255L257.892 121.602V129.266L271.989 130.587Z" fill="#FFBE9D"/>
<path d="M278.893 106.8C278.889 106.949 278.841 107.093 278.755 107.215C278.669 107.336 278.549 107.43 278.41 107.483C278.271 107.536 278.119 107.547 277.974 107.513C277.829 107.48 277.697 107.404 277.595 107.296C277.493 107.188 277.425 107.051 277.401 106.904C277.377 106.757 277.396 106.607 277.458 106.471C277.519 106.335 277.62 106.221 277.746 106.143C277.873 106.064 278.02 106.025 278.169 106.031C278.267 106.033 278.364 106.055 278.454 106.095C278.543 106.135 278.624 106.192 278.691 106.264C278.759 106.336 278.811 106.42 278.846 106.512C278.88 106.604 278.896 106.702 278.893 106.8Z" fill="#222831"/>
<path d="M278.947 106.013C278.847 106.112 278.304 105.624 277.508 105.551C276.712 105.479 276.088 105.85 276.006 105.741C275.925 105.633 276.07 105.515 276.341 105.343C276.705 105.124 277.131 105.029 277.553 105.072C277.974 105.107 278.371 105.279 278.685 105.56C278.92 105.786 278.992 105.976 278.947 106.013Z" fill="#222831"/>
<path d="M269.428 105.886C269.548 105.974 269.639 106.095 269.69 106.235C269.741 106.374 269.75 106.526 269.715 106.67C269.679 106.814 269.602 106.945 269.493 107.045C269.384 107.146 269.247 107.212 269.1 107.234C268.953 107.257 268.803 107.236 268.668 107.173C268.534 107.111 268.421 107.009 268.343 106.883C268.266 106.756 268.228 106.609 268.235 106.46C268.241 106.312 268.291 106.169 268.379 106.049C268.437 105.969 268.51 105.902 268.594 105.851C268.679 105.799 268.772 105.765 268.87 105.75C268.967 105.735 269.067 105.739 269.163 105.763C269.258 105.786 269.349 105.828 269.428 105.886Z" fill="#222831"/>
<path d="M270.016 105.732C269.917 105.822 269.383 105.334 268.578 105.27C267.772 105.207 267.157 105.569 267.076 105.451C266.994 105.334 267.139 105.234 267.41 105.062C267.775 104.842 268.199 104.744 268.623 104.782C269.047 104.82 269.447 104.994 269.763 105.28C269.998 105.497 270.071 105.687 270.016 105.732Z" fill="#222831"/>
<path d="M272.704 112.627C273.137 112.53 273.581 112.487 274.025 112.5C274.233 112.5 274.432 112.5 274.486 112.328C274.514 112.103 274.479 111.875 274.387 111.667C274.233 111.134 274.07 110.573 273.889 109.985C273.419 108.551 273.056 107.084 272.803 105.596C273.005 105.991 273.162 106.407 273.274 106.836C273.527 107.614 273.862 108.691 274.178 109.894C274.341 110.482 274.504 111.052 274.649 111.586C274.763 111.855 274.782 112.155 274.703 112.437C274.671 112.507 274.622 112.568 274.56 112.616C274.499 112.663 274.427 112.695 274.35 112.708C274.233 112.725 274.115 112.725 273.997 112.708C273.564 112.732 273.13 112.705 272.704 112.627Z" fill="#222831"/>
<path d="M270.025 113.296C269.22 112.735 272.224 114.717 273.871 114.762C273.563 115.167 273.127 115.455 272.633 115.579C272.139 115.702 271.619 115.653 271.156 115.441C269.483 114.653 270.025 113.296 270.025 113.296Z" fill="white"/>
<path d="M272.604 122.606C269.832 122.402 267.176 121.41 264.949 119.747C264.949 119.747 266.56 124.09 272.432 124.036L272.604 122.606Z" fill="#EB996E"/>
<path d="M258.706 109.768C258.706 109.768 258.625 109.831 258.48 109.912C258.276 110.008 258.044 110.024 257.829 109.958C257.494 109.774 257.216 109.505 257.021 109.177C256.827 108.849 256.725 108.475 256.725 108.094C256.684 107.667 256.74 107.238 256.888 106.836C256.925 106.678 257.001 106.532 257.108 106.411C257.215 106.289 257.351 106.196 257.503 106.139C257.6 106.105 257.706 106.106 257.802 106.143C257.898 106.179 257.978 106.248 258.028 106.338C258.1 106.474 258.073 106.583 258.1 106.583C258.127 106.583 258.209 106.492 258.154 106.293C258.119 106.171 258.042 106.066 257.937 105.994C257.867 105.946 257.787 105.912 257.703 105.895C257.619 105.877 257.533 105.878 257.449 105.895C257.247 105.947 257.062 106.051 256.912 106.195C256.761 106.339 256.65 106.519 256.589 106.718C256.404 107.164 256.329 107.649 256.372 108.13C256.377 108.575 256.513 109.008 256.762 109.376C257.011 109.745 257.363 110.032 257.774 110.202C257.909 110.233 258.05 110.233 258.184 110.202C258.319 110.171 258.445 110.109 258.552 110.021C258.706 109.858 258.724 109.777 258.706 109.768Z" fill="#EB996E"/>
<path d="M281.191 97.9962C280.872 98.1031 280.54 98.167 280.205 98.1862C281.305 97.6088 282.209 96.7176 282.801 95.6257C283.235 94.8713 283.463 94.0166 283.463 93.1466C283.463 92.2766 283.235 91.4218 282.801 90.6675C282.334 89.9378 281.615 89.4055 280.781 89.1719C279.947 88.9383 279.055 89.0198 278.277 89.4008C278.577 88.7783 278.64 88.0681 278.456 87.4024C278.271 86.7367 277.851 86.1607 277.273 85.7817C276.673 85.4258 276 85.2093 275.304 85.1482C274.609 85.0871 273.909 85.183 273.256 85.4288C271.953 85.931 270.732 86.6264 269.636 87.4917C269.554 87.0237 269.361 86.5821 269.073 86.2042C268.785 85.8264 268.41 85.5232 267.981 85.3203C267.116 84.9191 266.149 84.7958 265.212 84.9674C263.85 85.2006 262.594 85.8464 261.611 86.8173C260.629 87.7883 259.969 89.0375 259.72 90.3961C259.292 89.9581 258.76 89.6374 258.173 89.4649C257.586 89.2924 256.964 89.2739 256.368 89.4111C255.772 89.5484 255.221 89.8368 254.768 90.2485C254.316 90.6603 253.977 91.1816 253.784 91.7623C253.788 91.8044 253.788 91.8468 253.784 91.8889C253.242 92.1241 252.786 92.5227 252.481 93.029C252.224 93.461 252.065 93.9447 252.017 94.4452C251.968 94.9458 252.031 95.4508 252.201 95.9243C252.547 96.8544 253.181 97.6498 254.01 98.1952C254.328 98.4187 254.609 98.6903 254.843 99.0005C255.022 99.2711 255.131 99.5821 255.159 99.9053C255.078 101.86 254.083 103.705 253.594 105.623C252.924 108.284 254.399 111.912 255.25 114.517C256.1 117.123 256.399 118.137 258.055 118.345L258.308 111.342C256.498 112.825 254.083 107.723 255.666 105.687C257.249 103.651 258.932 104.348 259.222 105.633C259.334 106.126 259.476 106.613 259.647 107.089H261.457L261.258 105.56C261.258 105.56 260.887 98.7652 264.135 98.3219C264.983 98.1421 265.868 98.3047 266.596 98.7743C267.643 99.1957 268.777 99.3541 269.899 99.2357C271.057 99.2357 272.613 97.9148 272.613 96.7657C273.276 97.5388 274.116 98.1407 275.061 98.5203C276.006 98.8999 277.029 99.046 278.042 98.9462C278.566 98.8914 279.08 98.7666 279.571 98.5752C280.183 98.7448 280.832 98.729 281.435 98.53C282.056 98.3284 282.6 97.9397 282.991 97.4171C283.281 97.01 283.335 96.7024 283.281 96.6752C282.685 97.2578 281.973 97.708 281.191 97.9962ZM254.227 97.779C253.49 97.2665 252.928 96.5401 252.617 95.6981C252.47 95.2898 252.413 94.8547 252.449 94.4223C252.485 93.99 252.613 93.5703 252.825 93.1918C253.015 92.8287 253.292 92.518 253.63 92.287C253.323 94.3409 254.662 96.4219 255.015 98.5662C254.797 98.2746 254.545 98.0103 254.264 97.779H254.227Z" fill="#DC510A"/>
<path d="M312.298 106.492V118.155C312.298 119.424 312.803 120.642 313.7 121.539C314.598 122.437 315.815 122.941 317.085 122.941H337.289V129.61L340.909 123.231C341.981 123.153 342.984 122.672 343.716 121.885C344.447 121.098 344.854 120.062 344.854 118.987V106.492C344.852 105.859 344.726 105.233 344.481 104.649C344.236 104.065 343.877 103.536 343.426 103.091C342.975 102.647 342.44 102.297 341.853 102.06C341.265 101.824 340.637 101.707 340.004 101.715H317.085C315.817 101.715 314.601 102.218 313.703 103.114C312.806 104.01 312.301 105.225 312.298 106.492Z" fill="#DC510A"/>
<path d="M323.292 112.944C323.292 113.334 323.176 113.715 322.959 114.04C322.743 114.364 322.435 114.617 322.074 114.766C321.714 114.915 321.317 114.954 320.934 114.878C320.552 114.802 320.2 114.614 319.925 114.338C319.649 114.063 319.461 113.711 319.385 113.329C319.309 112.946 319.348 112.549 319.497 112.189C319.646 111.828 319.899 111.52 320.223 111.304C320.548 111.087 320.929 110.971 321.319 110.971C321.842 110.971 322.344 111.179 322.714 111.549C323.084 111.919 323.292 112.421 323.292 112.944Z" fill="white"/>
<path d="M330.784 112.944C330.784 113.334 330.668 113.715 330.451 114.04C330.234 114.364 329.926 114.617 329.566 114.766C329.206 114.915 328.809 114.954 328.426 114.878C328.044 114.802 327.692 114.614 327.416 114.338C327.14 114.063 326.953 113.711 326.877 113.329C326.8 112.946 326.839 112.549 326.989 112.189C327.138 111.828 327.391 111.52 327.715 111.304C328.04 111.087 328.421 110.971 328.811 110.971C329.334 110.971 329.836 111.179 330.206 111.549C330.576 111.919 330.784 112.421 330.784 112.944Z" fill="white"/>
<path d="M338.276 112.944C338.276 113.334 338.16 113.715 337.943 114.04C337.726 114.364 337.418 114.617 337.058 114.766C336.697 114.915 336.301 114.954 335.918 114.878C335.536 114.802 335.184 114.614 334.908 114.338C334.632 114.063 334.445 113.711 334.368 113.329C334.292 112.946 334.331 112.549 334.481 112.189C334.63 111.828 334.883 111.52 335.207 111.304C335.532 111.087 335.913 110.971 336.303 110.971C336.826 110.971 337.328 111.179 337.698 111.549C338.068 111.919 338.276 112.421 338.276 112.944Z" fill="white"/>
<path d="M328.241 141.155C327.834 140.25 302.137 162.933 297.016 163.711L282.032 144.186C282.032 144.186 278.92 139.255 272.233 130.804C267.926 125.375 256.028 126.479 252.897 133.129C247.586 144.412 247.405 159.368 243.297 183.399L239.823 203.783C239.823 203.783 244.953 203.177 244.935 203.222L281.417 199.431L282.322 175.002C289.56 182.313 291.768 183.842 295.523 183.263C304.96 181.797 337.977 152.102 337.977 152.102C337.977 152.102 328.639 142.078 328.241 141.155Z" fill="#455A64"/>
<path d="M333.525 156.255C332.866 155.854 332.258 155.374 331.716 154.826C328.893 152.319 326.432 149.432 324.405 146.248C323.947 145.611 323.573 144.917 323.292 144.185C323.781 144.772 324.226 145.395 324.622 146.049C325.454 147.216 326.64 148.809 328.06 150.474C329.481 152.138 330.856 153.559 331.879 154.572C332.473 155.087 333.024 155.65 333.525 156.255Z" fill="#222831"/>
<path d="M295.559 171.447C295.714 168.823 296.176 166.227 296.935 163.71C296.791 166.335 296.329 168.933 295.559 171.447Z" fill="#222831"/>
<path d="M298.835 170.641C298.305 169.578 297.918 168.449 297.686 167.285C297.297 166.163 297.063 164.994 296.989 163.81C297.514 164.875 297.9 166.003 298.138 167.167C298.521 168.29 298.755 169.458 298.835 170.641Z" fill="#222831"/>
<path opacity="0.2" d="M262.95 149.37L281.942 185.271L282.367 174.622L262.95 149.37Z" fill="black"/>
<path d="M261.719 147.624C262.051 147.959 262.353 148.323 262.624 148.709L264.886 151.74C266.795 154.31 269.464 157.829 272.459 161.693L280.15 171.546L282.458 174.55C282.755 174.906 283.021 175.288 283.254 175.69C282.925 175.374 282.622 175.032 282.349 174.667C281.725 173.907 280.91 172.93 279.924 171.754C277.897 169.275 275.12 165.837 272.125 161.982C269.13 158.128 266.497 154.563 264.651 151.948C263.746 150.636 262.995 149.569 262.506 148.818C262.208 148.444 261.945 148.045 261.719 147.624Z" fill="#222831"/>
<path d="M262.316 158.843C262.162 158.493 262.049 158.125 261.982 157.748C261.801 157.033 261.565 156.011 261.285 154.753L261.565 154.889L257.829 156.907L257.575 157.042L257.494 156.762C257.358 156.273 257.213 155.758 257.059 155.233L256.408 152.889L256.743 153.025L253.06 155.097L252.834 155.224V154.97C252.62 153.854 252.493 152.723 252.454 151.586C252.781 152.676 253.023 153.789 253.178 154.916L252.915 154.789L256.535 152.627L256.788 152.473L256.869 152.763C257.078 153.514 257.304 154.301 257.53 155.106C257.684 155.631 257.829 156.147 257.964 156.635L257.63 156.5L261.403 154.536L261.629 154.409L261.674 154.663C261.909 155.92 262.099 156.961 262.208 157.685C262.293 158.065 262.329 158.454 262.316 158.843Z" fill="#222831"/>
<path d="M266.777 138.549C266.416 138.411 266.076 138.225 265.764 137.997C265.139 137.608 264.262 137.038 263.194 136.332L263.484 136.233C263.104 137.436 262.678 138.811 262.217 140.286L262.126 140.567L261.873 140.422L260.498 139.617L258.399 138.386L258.733 138.25L257.53 142.304L257.458 142.548L257.258 142.394C256.33 141.738 255.453 141.012 254.635 140.223C255.624 140.783 256.57 141.415 257.467 142.114L257.195 142.204C257.512 141.01 257.883 139.635 258.29 138.133L258.371 137.843L258.625 137.997L260.733 139.209L262.108 140.015L261.774 140.141L263.095 136.097L263.185 135.853L263.393 135.997C264.434 136.739 265.284 137.355 265.872 137.807C266.203 138.016 266.507 138.265 266.777 138.549Z" fill="#222831"/>
<path d="M280.105 145.524C279.787 145.306 279.498 145.047 279.245 144.755C278.721 144.239 277.979 143.488 277.092 142.566H277.4C276.766 143.66 276.042 144.9 275.273 146.248L275.129 146.492L274.911 146.293L273.744 145.217L271.935 143.561L272.297 143.497C271.536 144.864 270.84 146.103 270.234 147.18L270.107 147.406L269.944 147.216C269.183 146.365 268.488 145.458 267.863 144.502C268.707 145.263 269.493 146.086 270.215 146.963H269.926L271.889 143.226L272.034 142.964L272.251 143.163L274.061 144.818L275.219 145.904H274.866L277.056 142.285L277.192 142.068L277.363 142.258C278.268 143.163 278.92 143.995 279.39 144.556C279.672 144.844 279.913 145.17 280.105 145.524Z" fill="#E0E0E0"/>
<path d="M315.248 168.37C315.248 168.37 314.94 168.081 314.488 167.511C314.036 166.941 313.393 166.099 312.633 165.068H312.941L310.371 168.452L310.19 168.678L310.009 168.461L308.978 167.239L307.43 165.375H307.792L305.286 168.768L305.132 168.976L304.997 168.768C304.35 167.835 303.772 166.855 303.268 165.837C304.01 166.688 304.684 167.596 305.286 168.551H304.997C305.711 167.547 306.526 166.38 307.421 165.095L307.593 164.86L307.783 165.086L309.349 166.95L310.371 168.171H310.009L312.642 164.841L312.805 164.633L312.95 164.841C313.683 165.9 314.271 166.769 314.678 167.384C314.903 167.691 315.094 168.022 315.248 168.37Z" fill="#222831"/>
<path d="M293.487 166.542C293.162 166.356 292.859 166.135 292.582 165.882C292.003 165.43 291.18 164.769 290.194 163.964L290.492 163.891L288.773 167.764L288.665 168.026L288.429 167.854L287.135 166.95L285.172 165.502L285.525 165.402C284.928 166.85 284.385 168.117 283.905 169.302L283.806 169.546L283.625 169.365C282.769 168.621 281.973 167.81 281.245 166.941C282.17 167.597 283.045 168.323 283.86 169.112L283.58 169.175C284.023 168.017 284.539 166.687 285.1 165.24L285.208 164.959L285.443 165.131L287.416 166.561L288.701 167.465L288.348 167.565L290.103 163.692L290.212 163.457L290.402 163.62C291.361 164.47 292.148 165.167 292.691 165.665C293.234 166.162 293.514 166.506 293.487 166.542Z" fill="#E0E0E0"/>
<path d="M324.622 161.431C324.499 161.067 324.42 160.691 324.387 160.309C324.278 159.576 324.133 158.499 323.97 157.268L324.242 157.422L320.333 159.105L320.071 159.214L320.016 158.933C319.926 158.427 319.826 157.902 319.727 157.368C319.573 156.536 319.428 155.739 319.292 154.97L319.609 155.133L315.764 156.906L315.528 157.006V156.753C315.417 155.622 315.396 154.485 315.465 153.351C315.69 154.466 315.826 155.598 315.872 156.735L315.628 156.581L319.437 154.771L319.7 154.635L319.754 154.934C319.899 155.703 320.053 156.499 320.206 157.323C320.306 157.866 320.396 158.39 320.487 158.888L320.17 158.716L324.106 157.115L324.35 157.015V157.268C324.468 158.544 324.559 159.594 324.604 160.327C324.652 160.693 324.658 161.063 324.622 161.431Z" fill="#E0E0E0"/>
<path d="M281.245 151.786C280.949 152.02 280.627 152.221 280.286 152.383C279.653 152.745 278.73 153.288 277.572 153.858L277.626 153.55L280.585 156.599L280.784 156.807L280.539 156.961L279.182 157.785L277.101 159.051V158.689L280.087 161.675L280.268 161.865L280.033 161.965C279.014 162.468 277.959 162.892 276.875 163.232C277.839 162.627 278.846 162.095 279.888 161.639L279.843 161.929L276.784 159.015L276.567 158.816L276.821 158.662L278.902 157.386L280.259 156.563V156.916C279.2 155.794 278.214 154.735 277.354 153.812L277.173 153.622L277.409 153.514C278.558 152.953 279.508 152.491 280.168 152.193C280.508 152.01 280.87 151.873 281.245 151.786Z" fill="#222831"/>
<path d="M297.848 171.446C297.552 171.692 297.227 171.902 296.88 172.071C296.247 172.433 295.324 172.975 294.166 173.536L294.211 173.238L297.179 176.287L297.378 176.486L297.134 176.64L295.776 177.472L293.686 178.73L293.732 178.377L296.717 181.363L296.898 181.544L296.663 181.644C295.643 182.145 294.588 182.571 293.505 182.919C294.487 182.316 295.512 181.787 296.573 181.336L296.518 181.625L293.469 178.712L293.252 178.504L293.505 178.35L295.577 177.083L296.944 176.251L296.898 176.613L293.994 173.509L293.813 173.319L294.039 173.211C295.188 172.641 296.138 172.188 296.808 171.881C297.134 171.691 297.484 171.545 297.848 171.446Z" fill="#E0E0E0"/>
<path d="M264.904 171.184C264.753 170.83 264.64 170.46 264.569 170.08C264.389 169.366 264.153 168.343 263.873 167.095L264.153 167.221L260.38 169.257L260.127 169.402L260.054 169.121C259.91 168.624 259.765 168.108 259.62 167.583C259.394 166.778 259.168 165.991 258.96 165.24L259.294 165.375L255.621 167.447L255.395 167.574V167.321C255.187 166.206 255.06 165.078 255.015 163.946C255.344 165.032 255.586 166.142 255.738 167.266L255.476 167.14L259.095 164.977L259.349 164.833L259.43 165.113C259.638 165.864 259.864 166.651 260.1 167.456L260.525 168.995L260.19 168.85L263.963 166.886L264.189 166.769L264.244 167.013C264.479 168.271 264.66 169.311 264.778 170.035C264.865 170.412 264.908 170.798 264.904 171.184Z" fill="#E0E0E0"/>
<path d="M279.978 179.725C279.825 179.371 279.712 179.001 279.644 178.621C279.463 177.907 279.227 176.884 278.947 175.636L279.227 175.762L275.5 177.798L275.246 177.943L275.165 177.662C275.02 177.165 274.875 176.649 274.73 176.133C274.504 175.319 274.287 174.532 274.07 173.781L274.405 173.916L270.731 175.988L270.505 176.115V175.871C270.297 174.753 270.17 173.622 270.125 172.487C270.453 173.573 270.695 174.683 270.849 175.807L270.586 175.69L274.206 173.527L274.459 173.374L274.54 173.663C274.758 174.414 274.975 175.192 275.21 175.997L275.635 177.536L275.31 177.391L279.074 175.427L279.309 175.31L279.354 175.554C279.589 176.812 279.77 177.852 279.888 178.576C279.969 178.954 280 179.34 279.978 179.725Z" fill="#222831"/>
<path d="M257.856 198.527C257.701 198.176 257.589 197.809 257.521 197.432C257.34 196.717 257.105 195.694 256.824 194.446L257.105 194.572L253.377 196.608L253.124 196.744L253.042 196.464C252.897 195.975 252.753 195.459 252.608 194.934L251.956 192.591L252.282 192.727L248.618 194.835L248.391 194.962V194.708C248.183 193.591 248.056 192.46 248.011 191.324C248.339 192.414 248.581 193.527 248.735 194.654L248.473 194.527L252.092 192.365L252.345 192.211L252.427 192.5C252.644 193.251 252.861 194.039 253.096 194.844L253.522 196.373L253.196 196.237L256.96 194.274L257.195 194.147L257.24 194.401C257.476 195.658 257.657 196.699 257.774 197.423C257.855 197.785 257.882 198.157 257.856 198.527Z" fill="#E0E0E0"/>
<path d="M258.29 178.793C257.947 178.618 257.628 178.399 257.34 178.142C256.752 177.708 255.919 177.056 254.924 176.251L255.223 176.178L253.585 180.105L253.476 180.368L253.241 180.196C252.816 179.906 252.382 179.59 251.938 179.291L249.966 177.87L250.31 177.771L248.735 181.689L248.636 181.924L248.455 181.752C247.594 181.011 246.787 180.21 246.039 179.354C246.977 179.995 247.864 180.709 248.69 181.49L248.409 181.562C248.835 180.404 249.314 179.065 249.884 177.608L249.984 177.328L250.228 177.499L252.237 178.893L253.531 179.798L253.187 179.888L254.897 175.997L255.006 175.762L255.196 175.925C256.164 176.767 256.96 177.454 257.503 177.952C257.797 178.2 258.062 178.483 258.29 178.793Z" fill="#222831"/>
<path d="M266.18 179.327C265.908 179.593 265.604 179.824 265.275 180.014C264.669 180.421 263.782 180.992 262.697 181.67V181.362L265.872 184.195L266.08 184.394L265.845 184.556L264.551 185.461L262.561 186.864V186.511L265.809 189.298L265.999 189.47L265.782 189.587C264.799 190.159 263.773 190.655 262.715 191.071C263.635 190.399 264.602 189.794 265.61 189.262V189.551L262.353 186.837L262.126 186.647L262.371 186.475L264.352 185.063L265.646 184.158V184.52L262.534 181.634L262.344 181.453L262.561 181.326C263.665 180.684 264.579 180.159 265.23 179.806C265.525 179.607 265.845 179.446 266.18 179.327Z" fill="#222831"/>
<path d="M274.857 185.498C274.688 185.843 274.475 186.165 274.224 186.457C273.789 187.054 273.147 187.886 272.36 188.9L272.288 188.601L276.232 190.185L276.495 190.284L276.332 190.528L275.427 191.84L274.034 193.84L273.925 193.487L277.861 195.007L278.105 195.107L277.934 195.288C277.209 196.163 276.416 196.98 275.563 197.731C276.201 196.792 276.905 195.899 277.671 195.062L277.744 195.342L273.771 193.921L273.491 193.822L273.663 193.578C274.097 192.935 274.568 192.266 275.038 191.569C275.355 191.126 275.653 190.664 275.943 190.266L276.042 190.61L272.143 188.954L271.907 188.855L272.07 188.655C272.894 187.669 273.572 186.846 274.061 186.321C274.55 185.796 274.857 185.471 274.857 185.498Z" fill="#E0E0E0"/>
<path d="M269.935 200.246C269.935 200.246 269.935 200.345 270.034 200.544C270.134 200.743 270.188 201.06 270.297 201.449C270.514 202.236 270.84 203.403 271.202 204.914C271.564 206.425 272.025 208.271 272.342 210.47C272.557 211.668 272.396 212.904 271.88 214.007C271.308 215.23 270.523 216.342 269.564 217.292V217.138C271.935 228.393 275.255 244.163 278.938 261.608C282.512 278.798 285.706 294.315 287.986 305.58C289.117 311.207 290.013 315.768 290.601 318.925C290.899 320.5 291.117 321.73 291.252 322.544C291.352 322.965 291.4 323.397 291.397 323.829C291.397 323.829 291.325 323.395 291.162 322.562C290.999 321.73 290.737 320.49 290.42 318.943C289.759 315.768 288.818 311.226 287.66 305.625C285.308 294.361 282.078 278.835 278.504 261.689C274.884 244.227 271.609 228.448 269.274 217.192V217.102L269.338 217.038C271.256 215.111 272.55 212.677 272.052 210.488C271.763 208.307 271.319 206.443 270.985 204.932C270.65 203.421 270.36 202.281 270.161 201.458L269.944 200.553C269.929 200.451 269.926 200.348 269.935 200.246Z" fill="#455A64"/>
<path d="M250.88 202.417C250.88 202.417 251.024 202.616 251.16 203.032C251.353 203.617 251.469 204.226 251.504 204.841C251.654 206.909 251.03 208.958 249.754 210.591C248.479 212.224 246.642 213.326 244.6 213.681C244.004 213.793 243.396 213.829 242.791 213.79C242.565 213.794 242.34 213.754 242.13 213.672C242.13 213.582 243.089 213.672 244.564 213.356C246.487 212.933 248.202 211.852 249.413 210.299C250.624 208.746 251.255 206.819 251.196 204.85C251.139 204.034 251.033 203.221 250.88 202.417Z" fill="#455A64"/>
<path d="M266.035 203.385C266.035 203.385 266.035 203.249 266.252 203.132C266.388 203.053 266.538 203.002 266.693 202.982C266.848 202.962 267.006 202.973 267.157 203.014C267.391 203.071 267.603 203.198 267.764 203.377C267.925 203.556 268.029 203.779 268.062 204.018C268.106 204.318 268.049 204.623 267.899 204.886C267.75 205.149 267.517 205.355 267.237 205.47C266.957 205.585 266.647 205.604 266.356 205.523C266.064 205.442 265.808 205.266 265.628 205.023C265.48 204.834 265.387 204.608 265.36 204.37C265.333 204.132 265.373 203.891 265.474 203.674C265.845 202.942 266.442 202.923 266.424 202.978C266.406 203.032 265.99 203.195 265.791 203.792C265.732 203.953 265.717 204.126 265.747 204.295C265.778 204.463 265.852 204.621 265.963 204.751C266.098 204.903 266.274 205.013 266.47 205.066C266.666 205.119 266.874 205.113 267.067 205.05C267.248 204.963 267.399 204.823 267.499 204.648C267.599 204.474 267.644 204.273 267.628 204.073C267.615 203.904 267.553 203.743 267.448 203.611C267.343 203.479 267.201 203.381 267.04 203.331C266.708 203.241 266.356 203.26 266.035 203.385Z" fill="#455A64"/>
<path d="M285.163 205.394C284.647 205.758 284.038 205.968 283.408 206C281.886 206.229 280.334 205.895 279.04 205.063C277.746 204.23 276.8 202.955 276.377 201.476C276.159 200.899 276.1 200.274 276.205 199.667C276.287 199.667 276.305 200.372 276.685 201.413C277.164 202.772 278.08 203.933 279.29 204.716C280.5 205.498 281.935 205.858 283.371 205.738C284.475 205.593 285.136 205.322 285.163 205.394Z" fill="#455A64"/>
<path d="M295.098 343.725C294.803 343.806 294.498 343.843 294.193 343.834L291.732 343.969L283.589 344.358L275.445 344.784L272.975 344.883C272.675 344.926 272.37 344.926 272.07 344.883C272.362 344.784 272.667 344.729 272.975 344.72C273.545 344.648 274.387 344.557 275.427 344.467C277.499 344.277 280.376 344.069 283.57 343.906C286.764 343.743 289.633 343.671 291.714 343.662C292.754 343.662 293.596 343.662 294.184 343.662C294.49 343.641 294.798 343.662 295.098 343.725Z" fill="#455A64"/>
<path d="M253.793 212.74C253.92 212.74 261.032 242.082 269.709 278.337C278.386 314.591 285.29 344.023 285.163 344.051C285.036 344.078 277.924 314.718 269.247 278.445C260.57 242.173 253.666 212.767 253.793 212.74Z" fill="#455A64"/>
<path d="M276.947 213.907C277.009 213.967 277.064 214.034 277.11 214.106L277.553 214.694L279.236 217.002L285.335 225.516L294.338 238.182L299.631 245.683C301.441 248.289 303.25 251.211 303.73 254.649C304.209 258.087 303.205 261.408 302.164 264.385C301.124 267.361 299.984 270.257 298.934 272.98C296.817 278.409 294.808 283.313 293.062 287.375C291.316 291.438 289.841 294.704 288.809 296.948L287.588 299.526L287.262 300.187C287.181 300.332 287.145 300.413 287.135 300.404C287.151 300.322 287.178 300.243 287.217 300.169C287.289 299.988 287.389 299.762 287.506 299.481L288.637 296.875C289.624 294.604 291.053 291.32 292.754 287.248C294.455 283.177 296.437 278.291 298.527 272.826C299.568 270.112 300.644 267.226 301.721 264.231C302.798 261.236 303.739 258.024 303.268 254.713C302.798 251.401 301.015 248.542 299.251 245.945L293.985 238.436L285.063 225.669L279.083 217.065L277.481 214.712C277.309 214.459 277.173 214.26 277.074 214.097C276.974 213.934 276.938 213.907 276.947 213.907Z" fill="#455A64"/>
<path d="M322.93 142.078L343.134 127.33L344.13 128.913L324.052 143.842L322.93 142.078Z" fill="#222831"/>
<path d="M327.924 141.625C327.924 141.625 330.639 134.567 331.245 133.065C331.851 131.563 332.883 128.949 333.272 128.894C333.661 128.84 335.082 129.057 333.227 133.545C331.372 138.033 335.407 135.291 335.407 135.291L339.298 132.504C339.298 132.504 342.374 141.697 340.628 144.466C339.253 146.538 337.71 148.493 336.013 150.311L327.924 141.625Z" fill="#FFBE9D"/>
<path d="M71.5001 258.603C71.7625 257.074 71.1834 251.483 71.1834 251.483C71.1834 251.483 65.3203 250.859 64.9674 245.05C64.6145 239.241 64.9674 225.832 64.9674 225.832L75.6442 220.612L87.4068 229.506L85.5971 258.576L71.5001 258.603Z" fill="#B78876"/>
<path d="M66.5869 235.55C66.5869 235.747 66.6651 235.936 66.8042 236.075C66.9434 236.214 67.1321 236.292 67.3289 236.292C67.5256 236.292 67.7144 236.214 67.8535 236.075C67.9926 235.936 68.0708 235.747 68.0708 235.55C68.0708 235.453 68.0516 235.356 68.0143 235.266C67.977 235.176 67.9224 235.094 67.8535 235.025C67.7846 234.957 67.7028 234.902 67.6128 234.865C67.5228 234.827 67.4263 234.808 67.3289 234.808C67.2314 234.808 67.1349 234.827 67.0449 234.865C66.9549 234.902 66.8731 234.957 66.8042 235.025C66.7353 235.094 66.6807 235.176 66.6434 235.266C66.6061 235.356 66.5869 235.453 66.5869 235.55Z" fill="#222831"/>
<path d="M65.5013 235.016C65.5917 235.107 66.1437 234.645 66.9399 234.6C67.7361 234.555 68.3424 234.944 68.4328 234.835C68.5233 234.727 68.3695 234.609 68.1071 234.428C67.7537 234.196 67.3346 234.085 66.9128 234.111C66.4907 234.14 66.0885 234.302 65.7636 234.573C65.5284 234.781 65.447 234.971 65.5013 235.016Z" fill="#222831"/>
<path d="M75.9879 236.156C76.3977 236.156 76.7299 235.824 76.7299 235.414C76.7299 235.005 76.3977 234.672 75.9879 234.672C75.5782 234.672 75.246 235.005 75.246 235.414C75.246 235.824 75.5782 236.156 75.9879 236.156Z" fill="#222831"/>
<path d="M74.1512 234.871C74.2508 234.97 74.7937 234.5 75.5989 234.464C76.4042 234.428 77.0014 234.808 77.0828 234.699C77.1643 234.59 77.0286 234.473 76.7662 234.292C76.4122 234.061 75.9936 233.95 75.5718 233.975C75.1489 234 74.7456 234.162 74.4227 234.437C74.1784 234.645 74.106 234.835 74.1512 234.871Z" fill="#222831"/>
<path d="M71.4006 241.558C70.9722 241.446 70.5311 241.392 70.0886 241.395C69.8895 241.395 69.6905 241.35 69.6452 241.205C69.6202 240.981 69.6611 240.755 69.7628 240.554L70.3057 238.898C70.8242 237.49 71.2326 236.044 71.5272 234.573C70.9191 235.944 70.4081 237.356 69.9981 238.798C69.8081 239.377 69.6362 239.938 69.4733 240.463C69.3491 240.726 69.3203 241.023 69.3919 241.305C69.4224 241.376 69.4695 241.44 69.5292 241.49C69.589 241.541 69.6597 241.576 69.7357 241.594C69.8497 241.611 69.9655 241.611 70.0795 241.594C70.5197 241.635 70.9633 241.623 71.4006 241.558Z" fill="#222831"/>
<path d="M74.0517 242.317C72.88 243.059 71.5503 243.515 70.17 243.647C70.4639 244.054 70.8865 244.35 71.3694 244.486C71.8523 244.622 72.367 244.591 72.8302 244.398C74.5403 243.684 74.0517 242.317 74.0517 242.317Z" fill="white"/>
<path d="M71.1833 251.483C73.9462 251.368 76.6182 250.464 78.8833 248.877C78.8833 248.877 77.137 253.148 71.31 252.913L71.1833 251.483Z" fill="#A36957"/>
<path d="M95.1067 233.813C95.1067 233.813 97.4773 247.213 86.1581 249.629L86.4929 233.487L95.1067 233.813Z" fill="#222831"/>
<path d="M94.7356 230.845C94.0292 227.977 92.7078 225.298 90.863 222.991C92.4917 223.67 93.5775 224.348 93.8037 224.131C94.0299 223.914 93.6137 223.507 92.8989 222.901C91.9706 222.141 90.9089 221.561 89.7682 221.191L89.2344 221.046C89.9812 220.749 90.6633 220.309 91.2431 219.752C91.9371 219.102 92.417 218.256 92.619 217.327C92.821 216.398 92.7356 215.429 92.3741 214.55C91.9654 213.802 91.3441 213.192 90.5887 212.797C89.8333 212.403 88.9778 212.241 88.1305 212.333C87.2887 212.452 86.4866 212.767 85.7889 213.252C85.0911 213.738 84.5171 214.381 84.1131 215.129C83.9181 215.487 83.7576 215.862 83.6336 216.251C83.6611 215.608 83.7275 214.967 83.8326 214.333C84.1946 212.098 85.027 210.424 84.8913 210.352C84.033 211.488 83.4984 212.835 83.344 214.251C83.344 214.468 83.2898 214.676 83.2626 214.884C83.085 214.306 82.8673 213.741 82.6111 213.193C82.0592 212.025 81.5344 211.383 81.3806 211.483C81.0639 211.636 82.0954 214.088 82.5207 217.4C81.5028 217.061 80.4434 216.863 79.3719 216.812C77.3994 216.812 74.124 215.907 69.4913 219.626C67.9228 220.627 66.567 221.927 65.5011 223.453C63.9702 225.693 63.1072 228.323 63.0129 231.035C62.9849 231.849 63.0364 232.664 63.1667 233.469C63.1944 233.766 63.2708 234.056 63.3929 234.328C63.4834 234.328 63.221 233.071 63.3929 231.053C63.4947 229.557 63.8274 228.086 64.3791 226.692C63.6899 229.104 63.843 231.68 64.8135 233.993L75.1736 232.374C74.504 230.103 74.9926 226.502 75.3093 224.738C77.1189 233.197 84.4027 237.26 84.4027 237.26L95.3057 235.55C95.1519 234.563 94.9709 231.731 94.7356 230.845Z" fill="#222831"/>
<path d="M119.817 360.427C120.152 360.59 146.88 365.856 145.894 362.237C144.908 358.618 120.052 352.936 120.052 352.936L119.817 360.427Z" fill="#DC510A"/>
<path d="M131.969 358.065C132.095 358.065 132.285 358.681 132.276 359.486C132.267 360.291 132.077 360.925 131.951 360.907C131.824 360.888 131.797 360.255 131.806 359.486C131.815 358.717 131.842 358.074 131.969 358.065Z" fill="#222831"/>
<path d="M130.548 357.577C130.666 357.577 130.901 358.292 130.811 359.233C130.72 360.174 130.385 360.862 130.268 360.816C130.15 360.771 130.268 360.065 130.34 359.188C130.412 358.31 130.412 357.595 130.548 357.577Z" fill="#222831"/>
<path d="M128.82 357.432C128.947 357.432 129.128 358.138 129.146 359.043C129.164 359.948 129.01 360.671 128.883 360.662C128.757 360.653 128.693 359.938 128.675 359.052C128.657 358.165 128.693 357.441 128.82 357.432Z" fill="#222831"/>
<path d="M125.563 354.818C125.703 354.81 125.843 354.826 125.979 354.863C126.25 354.863 126.648 354.99 127.155 355.107C128.178 355.324 129.652 355.677 131.453 356.175C133.254 356.672 135.389 357.297 137.723 358.093C138.891 358.491 140.13 358.898 141.343 359.432C142.657 359.962 143.865 360.726 144.908 361.685C145.07 361.815 145.203 361.979 145.297 362.165C145.354 362.296 145.363 362.444 145.321 362.582C145.28 362.719 145.191 362.838 145.07 362.916C144.722 363.097 144.331 363.181 143.939 363.16C143.243 363.214 142.555 363.241 141.885 363.26C140.537 363.26 139.234 363.26 137.995 363.16C135.525 363.006 133.317 362.699 131.471 362.409C129.625 362.119 128.141 361.83 127.119 361.622L125.943 361.378C125.802 361.358 125.665 361.319 125.536 361.26C126.076 361.278 126.615 361.338 127.146 361.441L131.516 362.074C133.326 362.328 135.57 362.599 138.022 362.735C139.252 362.798 140.537 362.834 141.876 362.798C142.537 362.798 143.225 362.753 143.903 362.699C144.214 362.716 144.525 362.657 144.808 362.527C144.889 362.463 144.899 362.427 144.871 362.346C144.796 362.223 144.701 362.113 144.591 362.02C143.586 361.101 142.424 360.368 141.162 359.857C139.949 359.333 138.719 358.953 137.542 358.5C135.217 357.695 133.1 357.025 131.317 356.492C129.535 355.958 128.069 355.587 127.065 355.279C126.554 355.158 126.053 355.004 125.563 354.818Z" fill="#222831"/>
<path d="M139.759 358.79C139.886 358.835 139.623 359.848 139.759 361.097C139.895 362.345 140.239 363.314 140.112 363.377C139.63 362.721 139.345 361.941 139.289 361.129C139.233 360.317 139.408 359.506 139.795 358.79H139.759Z" fill="#222831"/>
<path d="M31.4621 355.134C31.0911 355.134 4.11861 358.853 6.20873 361.884C8.29885 364.915 33.6698 362.255 33.6698 362.255L31.4621 355.134Z" fill="#DC510A"/>
<path d="M20.6948 361.332C20.5863 361.386 20.1972 360.843 19.9438 360.083C19.6905 359.323 19.6995 358.672 19.79 358.672C19.8805 358.672 20.1429 359.242 20.3872 359.975C20.6315 360.708 20.8125 361.269 20.6948 361.332Z" fill="#222831"/>
<path d="M22.2059 361.323C22.0973 361.386 21.6358 360.762 21.4096 359.848C21.1834 358.934 21.283 358.165 21.4096 358.165C21.5363 358.165 21.6539 358.88 21.8711 359.73C22.0883 360.581 22.3235 361.259 22.2059 361.323Z" fill="#222831"/>
<path d="M23.8798 360.898C23.7622 360.952 23.364 360.328 23.0474 359.477C22.7307 358.627 22.6402 357.894 22.7669 357.858C22.8935 357.822 23.1831 358.491 23.4907 359.315C23.7984 360.138 23.9974 360.844 23.8798 360.898Z" fill="#222831"/>
<path d="M27.8429 362.291C27.7125 362.342 27.5752 362.372 27.4357 362.381L26.2414 362.535C25.2008 362.662 23.6988 362.807 21.8349 362.924C19.971 363.042 17.7452 363.141 15.275 363.16C14.0354 363.16 12.7415 363.16 11.3843 363.078C9.97024 363.016 8.58013 362.691 7.28551 362.119C7.0868 362.049 6.90496 361.938 6.75167 361.793C6.66201 361.683 6.61304 361.546 6.61304 361.404C6.61304 361.262 6.66201 361.125 6.75167 361.015C7.01802 360.726 7.35943 360.516 7.73792 360.409C8.38033 360.128 9.0137 359.884 9.64707 359.64C10.9138 359.178 12.1625 358.798 13.3568 358.464C15.7455 357.803 17.9352 357.378 19.7719 357.052C21.6087 356.726 23.1107 356.509 24.1422 356.373L25.3365 356.22C25.4744 356.198 25.6149 356.198 25.7528 356.22C25.235 356.379 24.7056 356.497 24.1693 356.572L19.8353 357.396C18.0256 357.767 15.836 358.228 13.5016 358.898C12.3163 359.242 11.0857 359.622 9.88233 360.092C9.25801 360.337 8.62463 360.581 7.99126 360.852C7.69616 360.937 7.42606 361.092 7.20408 361.305C7.14979 361.395 7.14979 361.422 7.20408 361.495C7.3173 361.588 7.44586 361.662 7.5841 361.712C8.83011 362.25 10.1639 362.557 11.52 362.617C12.8411 362.725 14.144 362.716 15.3745 362.725C17.8356 362.725 20.0524 362.671 21.9163 362.599C23.7803 362.526 25.2822 362.418 26.3228 362.354C26.8275 362.299 27.3353 362.278 27.8429 362.291Z" fill="#222831"/>
<path d="M13.1035 363.196C12.9587 363.196 12.8863 362.155 12.3796 361.006C11.8729 359.857 11.2034 359.061 11.3029 358.97C11.4024 358.88 12.2891 359.559 12.8139 360.78C13.2171 361.518 13.3207 362.383 13.1035 363.196Z" fill="#222831"/>
<path d="M115.094 322.39H101.368L50.6984 323.702L36.2214 321.829C33.9684 321.332 32.4845 321.123 32.0049 321.277C30.0604 322.088 28.3563 323.384 27.0556 325.041C21.5363 331.628 25.0107 341.78 33.3169 344.041L41.1164 346.159L24.0516 351.642L29.8153 368C29.8153 368 55.2948 362.49 80.0053 356.672L119.546 367.367L125.246 349.009L118.541 346.828C122.749 345.543 125.409 344.53 125.78 343.915C128.268 340.06 132.674 322.137 115.031 322.408" fill="#455A64"/>
<path opacity="0.2" d="M118.324 346.892L88.9358 359.061L80.0505 356.655L118.324 346.892Z" fill="black"/>
<path opacity="0.2" d="M41.2432 323.766L78.8653 334.542L107.521 324.77L41.2432 323.766Z" fill="black"/>
<path d="M35.8867 366.816C35.4062 366.071 35.003 365.28 34.6833 364.454C34.0137 362.961 33.1451 360.835 32.2946 358.518C31.444 356.202 30.7473 353.994 30.304 352.438C30.0176 351.601 29.8146 350.737 29.6978 349.859C30.0663 350.66 30.3689 351.489 30.6026 352.339C31.1274 353.886 31.8603 356.021 32.7108 358.356C33.5613 360.69 34.3847 362.798 34.9728 364.318C35.3406 365.126 35.6461 365.961 35.8867 366.816Z" fill="#222831"/>
<path d="M126.585 328.488C126.512 328.532 126.433 328.566 126.35 328.588L125.644 328.85L122.93 329.809L112.895 333.22C104.381 336.061 92.6003 339.906 79.5438 344.005C66.4874 348.104 54.6162 351.678 46.0115 354.211L35.8052 357.161L33.0274 357.93L32.2945 358.12C32.2123 358.146 32.1272 358.161 32.0411 358.165L32.2854 358.074L33.0002 357.839L35.7147 356.98L45.8757 353.885C54.4624 351.279 66.3064 347.651 79.3538 343.553C92.4012 339.454 104.2 335.663 112.732 332.903L122.848 329.637L125.608 328.732L126.323 328.515C126.408 328.493 126.497 328.484 126.585 328.488Z" fill="#222831"/>
<path d="M99.1874 327.828C99.0049 327.932 98.8105 328.014 98.6084 328.072L96.9254 328.687C95.4596 329.212 93.3061 329.954 90.6822 330.85C85.3981 332.659 78.0781 335.048 69.9801 337.645C61.882 340.242 54.5168 342.531 49.1693 344.141C46.4549 344.947 44.3286 345.58 42.8357 346.005L41.1075 346.485C40.9057 346.544 40.7001 346.59 40.4922 346.621C40.6788 346.523 40.8762 346.447 41.0803 346.394L42.7814 345.833L49.1151 343.825L69.8715 337.201L90.6098 330.533L96.8983 328.515L98.6174 327.981C98.8014 327.91 98.9925 327.858 99.1874 327.828Z" fill="#222831"/>
<path d="M78.6753 334.479C78.6753 334.605 70.2334 332.307 59.8914 329.348C49.5493 326.389 41.207 323.919 41.2432 323.766C41.2794 323.612 49.6851 325.937 60.018 328.896C70.351 331.855 78.7115 334.352 78.6753 334.479Z" fill="#222831"/>
<path d="M119.763 347.76C118.836 350.814 117.754 353.819 116.524 356.763C114.614 361.685 112.968 365.63 112.85 365.585C113.775 362.534 114.856 359.532 116.089 356.591C117.998 351.669 119.645 347.715 119.763 347.76Z" fill="#222831"/>
<path d="M116.234 355.342C113.738 354.911 111.27 354.334 108.842 353.614C106.386 353.034 103.969 352.302 101.603 351.424C104.1 351.853 106.568 352.43 108.996 353.153C111.451 353.733 113.869 354.464 116.234 355.342Z" fill="#222831"/>
<path d="M59.9547 340.342C59.4807 340.284 59.0118 340.191 58.5522 340.061L54.7701 339.156C51.5852 338.342 47.1787 337.238 42.3742 335.79C38.2557 334.58 34.2207 333.102 30.2949 331.366C28.802 330.678 27.5805 330.081 26.8023 329.638C26.3694 329.434 25.9572 329.188 25.5718 328.905C26.0232 329.06 26.4619 329.251 26.8838 329.475C27.7162 329.864 28.9196 330.38 30.4306 331.058C34.3782 332.698 38.4103 334.127 42.5099 335.338C47.3054 336.786 51.6937 337.935 54.8606 338.831L58.5975 339.907C59.0633 340.006 59.518 340.152 59.9547 340.342Z" fill="#222831"/>
<path d="M87.7687 257.798H86.6557L86.4929 253.944L71.2106 254.849C71.2106 254.849 71.3644 256.658 71.3553 257.916C61.9453 258.821 46.862 263.652 46.5001 284.833L58.5703 285.113C57.5479 294.831 57.6655 300.63 56.6793 304.277C54.9963 310.302 49.667 323.024 50.7346 323.666C51.8023 324.308 101.332 325.222 103.693 323.937C106.055 322.653 101.757 306.05 100.68 301.544C100.002 298.667 99.857 292.08 99.8389 286.986L113.701 286.362C113.701 286.362 114.705 257.717 87.7687 257.798Z" fill="#DC510A"/>
<path d="M86.5742 257.644C85.8441 257.86 85.0907 257.988 84.3303 258.024C82.9278 258.187 80.9915 258.341 78.8471 258.386C76.7027 258.432 74.7664 258.386 73.364 258.26C72.6016 258.247 71.8429 258.15 71.1019 257.97C71.8556 257.881 72.6163 257.865 73.373 257.925C74.7755 257.925 76.7027 257.925 78.8019 257.925C80.9011 257.925 82.8645 257.78 84.2308 257.708C85.0081 257.612 85.7929 257.59 86.5742 257.644Z" fill="#222831"/>
<path d="M73.9883 254.722C74.124 254.722 74.2235 255.464 74.2235 256.378C74.2235 257.291 74.124 258.042 73.9883 258.042C73.8526 258.042 73.7531 257.3 73.7531 256.378C73.7531 255.455 73.8164 254.722 73.9883 254.722Z" fill="#222831"/>
<path d="M78.0329 254.432C78.1595 254.432 78.2862 255.246 78.3133 256.242C78.3961 256.851 78.3342 257.471 78.1324 258.051C77.9967 258.051 77.87 257.237 77.8428 256.242C77.7572 255.632 77.8225 255.011 78.0329 254.432Z" fill="#222831"/>
<path d="M82.2493 254.288C82.376 254.288 82.557 255.084 82.575 256.097C82.5931 257.111 82.4574 257.907 82.3217 257.907C82.1243 257.325 82.0503 256.709 82.1045 256.097C82.1317 255.12 82.1317 254.297 82.2493 254.288Z" fill="#222831"/>
<path d="M85.3075 254.143C85.4432 254.143 85.5337 254.939 85.6604 255.907C85.7871 256.875 85.8866 257.671 85.7599 257.717C85.6332 257.762 85.3166 256.984 85.1989 255.97C85.0813 254.957 85.1808 254.134 85.3075 254.143Z" fill="#222831"/>
<path d="M60.4794 284.888C60.2359 283.393 60.145 281.877 60.208 280.364C60.1121 278.853 60.1788 277.336 60.407 275.84C60.6461 277.335 60.737 278.851 60.6785 280.364C60.7628 281.875 60.6961 283.39 60.4794 284.888Z" fill="#222831"/>
<path d="M99.3231 286.399C98.9566 284.794 98.7386 283.158 98.6716 281.513C98.4534 279.879 98.3959 278.227 98.4997 276.582C99.0806 279.821 99.3562 283.108 99.3231 286.399Z" fill="#222831"/>
<path d="M60.4795 284.887C59.7897 284.979 59.0925 285 58.3984 284.951H53.4129H48.4183C47.7273 285 47.033 284.979 46.3463 284.887C47.0203 284.714 47.7134 284.626 48.4093 284.625C49.6851 284.526 51.4585 284.453 53.4129 284.462C55.3673 284.471 57.1407 284.535 58.4165 284.634C59.1118 284.637 59.8043 284.722 60.4795 284.887Z" fill="#222831"/>
<path d="M113.673 286.398C111.223 286.637 108.76 286.715 106.299 286.634C103.836 286.715 101.369 286.637 98.9159 286.398C101.37 286.165 103.836 286.087 106.299 286.163C108.76 286.087 111.223 286.165 113.673 286.398Z" fill="#222831"/>
<path d="M113.067 286.516C113.067 286.516 116.686 320.291 106.335 323.612C95.9844 326.933 75.5718 311.207 75.5718 311.207L81.4531 299.301C81.4531 299.301 95.0253 308.728 97.9569 306.602C100.888 304.476 99.3593 286.516 99.3593 286.516H113.067Z" fill="#B78876"/>
<path d="M46.672 284.887C46.672 284.887 42.9894 318.319 53.3315 321.648C63.6735 324.978 84.0951 309.235 84.0951 309.235L78.2048 297.328C78.2048 297.328 64.5511 306.059 61.7191 303.851C60.0814 302.567 60.0361 285.059 60.0361 285.059C55.2225 284.851 50.7618 284.643 46.672 284.887Z" fill="#B78876"/>
<path d="M106.625 291.854L99.7574 325.512C99.7574 325.512 57.5569 325.186 57.1226 325.059C56.6883 324.933 52.5985 291.854 52.5985 291.854H106.625Z" fill="#222831"/>
<path d="M76.3137 308.909C76.2792 309.416 76.398 309.922 76.6546 310.36C76.9112 310.799 77.2938 311.15 77.7526 311.369C78.2114 311.587 78.7253 311.662 79.2276 311.585C79.7298 311.507 80.1971 311.281 80.5688 310.934C80.9405 310.588 81.1994 310.137 81.3119 309.642C81.4244 309.146 81.3853 308.628 81.1997 308.155C81.014 307.682 80.6904 307.276 80.2709 306.989C79.8514 306.703 79.3553 306.549 78.8472 306.548C78.1989 306.528 77.5691 306.765 77.0947 307.207C76.6203 307.649 76.3396 308.261 76.3137 308.909Z" fill="white"/>
<path d="M85.1809 235.061C85.563 234.825 85.9979 234.687 86.4464 234.66C86.8949 234.633 87.343 234.718 87.7506 234.907C88.2711 235.327 88.6137 235.928 88.7097 236.59C88.8311 237.126 88.8247 237.683 88.6911 238.216C88.5575 238.748 88.3004 239.242 87.9406 239.657C87.5654 240.058 87.0638 240.317 86.52 240.391C85.9762 240.465 85.4234 240.35 84.9547 240.065" fill="#B78876"/>
<path d="M86.2666 239.142C86.2666 239.07 86.5561 239.024 86.8909 238.771C87.1119 238.628 87.2905 238.428 87.4082 238.193C87.526 237.957 87.5786 237.695 87.5605 237.432C87.5347 237.173 87.4419 236.925 87.2912 236.712C87.1405 236.499 86.937 236.33 86.7009 236.22C86.3209 236.039 86.0313 236.048 86.0223 235.975C86.0132 235.903 86.3118 235.767 86.8185 235.894C87.1494 235.992 87.4433 236.187 87.6624 236.453C87.8815 236.72 88.0158 237.046 88.0479 237.39C88.08 237.733 88.0085 238.079 87.8426 238.381C87.6768 238.684 87.4241 238.93 87.1171 239.088C86.5923 239.287 86.2666 239.242 86.2666 239.142Z" fill="#A36957"/>
</svg>
