<svg width="45" height="45" viewBox="0 0 45 45" fill="none" xmlns="http://www.w3.org/2000/svg">
<rect width="45" height="45" rx="22.5" fill="#DC510A" fill-opacity="0.32"/>
<path d="M30.9375 29.5312H14.0625C13.4375 29.5312 12.8906 29.2188 12.5781 28.6719C12.2656 28.125 12.3437 27.5 12.6562 26.9531L13.5156 25.625C14.9218 23.5156 15.625 21.0938 15.625 18.5938C15.625 15.7031 17.5 13.0469 20.2343 12.1094C20.7031 11.25 21.5625 10.7812 22.5 10.7812C23.4375 10.7812 24.2968 11.25 24.7656 12.1094C27.5 13.0469 29.375 15.7031 29.375 18.5938C29.375 21.0938 30.0781 23.5156 31.4843 25.625L32.3437 26.9531C32.6562 27.5 32.7343 28.125 32.4218 28.6719C32.1875 29.2188 31.5625 29.5312 30.9375 29.5312Z" fill="#222831"/>
<path d="M18.6719 31.0938C19.0625 32.8906 20.625 34.2188 22.5 34.2188C24.375 34.2188 25.9375 32.8906 26.3281 31.0938H18.6719Z" fill="#222831"/>
</svg>
