<svg width="30" height="30" viewBox="0 0 30 30" fill="none" xmlns="http://www.w3.org/2000/svg">
<path fill-rule="evenodd" clip-rule="evenodd" d="M26.3081 22.2225C25.5056 21.2119 24.2025 19.7475 23.0869 19.6087C22.4081 19.5244 21.6281 20.0869 20.8594 20.6175C20.7094 20.6925 19.5506 21.3825 19.41 21.4237C18.6675 21.6356 17.0831 21.6975 16.125 20.8237C15.2025 19.98 13.7438 18.4181 12.5663 16.9875C11.4413 15.5137 10.2619 13.7419 9.65813 12.6544C9.02813 11.5275 9.48188 10.0369 9.87188 9.38062C9.94313 9.2625 10.8056 8.37562 10.9988 8.16937L11.0269 8.20312C11.7413 7.60312 12.4894 6.99375 12.5738 6.33375C12.7125 5.235 11.5894 3.63562 10.7869 2.62312C9.98438 1.60875 8.74126 -0.166878 7.04813 0.0843716C6.41063 0.178122 5.86126 0.401247 5.31938 0.721872L5.30438 0.704997C5.29313 0.712497 5.24063 0.753747 5.21438 0.774372C5.19751 0.783747 5.18251 0.789372 5.16751 0.798747L5.17313 0.806247C4.86188 1.04625 3.97313 1.71 3.87188 1.8C2.77313 2.77687 1.11938 5.0775 2.39813 9.21562C3.34688 12.2906 5.37001 15.9019 8.12626 19.5544L8.11126 19.5675C8.24626 19.7437 8.38501 19.9031 8.52563 20.0737C8.65688 20.2481 8.78626 20.4206 8.92126 20.5931L8.94001 20.58C11.865 24.1031 14.9325 26.9194 17.7319 28.5806C21.5006 30.8156 24.18 29.8087 25.4175 29.0081C25.5338 28.9312 26.4188 28.2431 26.7188 28.0162L26.7263 28.0237C26.7375 28.0125 26.745 27.9975 26.76 27.9862C26.7825 27.9694 26.8313 27.9319 26.8406 27.9244L26.8294 27.9094C27.2831 27.4706 27.6469 27.0019 27.8981 26.4112C28.5563 24.8569 27.1106 23.2369 26.3081 22.2225Z" fill="#222831"/>
</svg>
