<svg width="31" height="30" viewBox="0 0 31 30" fill="none" xmlns="http://www.w3.org/2000/svg">
<path fill-rule="evenodd" clip-rule="evenodd" d="M15.5 30C23.7842 30 30.5 23.2842 30.5 15C30.5 6.71572 23.7842 0 15.5 0C7.21572 0 0.5 6.71572 0.5 15C0.5 23.2842 7.21572 30 15.5 30ZM16.625 10.5C16.625 9.87868 16.1213 9.375 15.5 9.375C14.8787 9.375 14.375 9.87868 14.375 10.5V13.875H11C10.3787 13.875 9.875 14.3787 9.875 15C9.875 15.6213 10.3787 16.125 11 16.125H14.375V19.5C14.375 20.1213 14.8787 20.625 15.5 20.625C16.1213 20.625 16.625 20.1213 16.625 19.5V16.125H20C20.6213 16.125 21.125 15.6213 21.125 15C21.125 14.3787 20.6213 13.875 20 13.875H16.625V10.5Z" fill="#DC510A"/>
</svg>
