<svg width="25" height="25" viewBox="0 0 25 25" fill="none" xmlns="http://www.w3.org/2000/svg">
<path fill-rule="evenodd" clip-rule="evenodd" d="M12.4999 3.57162H0.892849C0.399996 3.57162 0 3.97162 0 4.46447V24.1071C0 24.6 0.399996 25 0.892849 25H20.5355C21.0284 25 21.4284 24.6 21.4284 24.1071V12.5001C21.4284 12.0073 21.0284 11.6073 20.5355 11.6073C20.0427 11.6073 19.6427 12.0073 19.6427 12.5001V23.2143H1.7857V5.35732H12.4999C12.9927 5.35732 13.3927 4.95732 13.3927 4.46447C13.3927 3.97162 12.9927 3.57162 12.4999 3.57162ZM4.46425 20.5358H16.9641C17.457 20.5358 17.857 20.1358 17.857 19.6429C17.857 19.1501 17.457 18.7501 16.9641 18.7501H4.46425C3.97139 18.7501 3.5714 19.1501 3.5714 19.6429C3.5714 20.1358 3.97139 20.5358 4.46425 20.5358ZM4.46425 16.9644H8.03564C8.52849 16.9644 8.92849 16.5644 8.92849 16.0715C8.92849 15.5787 8.52849 15.1787 8.03564 15.1787H4.46425C3.97139 15.1787 3.5714 15.5787 3.5714 16.0715C3.5714 16.5644 3.97139 16.9644 4.46425 16.9644ZM24.7382 5.09571C25.0873 4.7475 25.0873 4.18144 24.7382 3.83322L21.1668 0.261828C20.8186 -0.087276 20.2525 -0.087276 19.9043 0.261828L10.9758 9.19032C10.8508 9.31443 10.766 9.47335 10.7312 9.64657L9.8383 14.1108C9.78027 14.4037 9.87134 14.7063 10.0829 14.9171C10.2937 15.1287 10.5963 15.2197 10.8892 15.1617L15.3534 14.2688C15.5266 14.234 15.6856 14.1492 15.8097 14.0242L24.7382 5.09571ZM4.46425 13.393H8.03564C8.52849 13.393 8.92849 12.993 8.92849 12.5001C8.92849 12.0073 8.52849 11.6073 8.03564 11.6073H4.46425C3.97139 11.6073 3.5714 12.0073 3.5714 12.5001C3.5714 12.993 3.97139 13.393 4.46425 13.393ZM4.46425 9.82156H8.92849C9.42134 9.82156 9.82134 9.42157 9.82134 8.92871C9.82134 8.43586 9.42134 8.03587 8.92849 8.03587H4.46425C3.97139 8.03587 3.5714 8.43586 3.5714 8.92871C3.5714 9.42157 3.97139 9.82156 4.46425 9.82156Z" fill="#DC510A"/>
</svg>
