<svg width="25" height="25" viewBox="0 0 25 25" fill="none" xmlns="http://www.w3.org/2000/svg">
<g clip-path="url(#clip0_453_1244)">
<path d="M20.8834 19.7864C19.3279 21.5757 17.2411 22.8209 14.9276 23.3402C12.6142 23.8594 10.1954 23.6254 8.02437 22.6725C5.85335 21.7193 4.04392 20.097 2.86031 18.0425C1.67671 15.988 1.18092 13.609 1.44535 11.2527C1.70957 8.89623 2.72029 6.68597 4.3299 4.94473C5.93951 3.20348 8.06368 2.02248 10.3922 1.57422M14.6034 1.58323C16.167 1.88437 17.6478 2.51789 18.9453 3.44091C20.2429 4.36394 21.3271 5.55493 22.1244 6.93329C22.9219 8.31167 23.4139 9.84528 23.5672 11.4303C23.7205 13.0153 23.5316 14.6148 23.0131 16.1205" stroke="#DC510A" stroke-width="2" stroke-linecap="round"/>
<path d="M10.0961 11.8988V9.75037C10.0961 8.44764 11.1723 7.3916 12.4999 7.3916C13.8276 7.3916 14.9038 8.44764 14.9038 9.75037V11.8988M9.49514 11.8988H15.5048C16.1706 11.8988 16.7067 12.4349 16.7067 13.1007V16.406C16.7067 17.0719 16.1706 17.6079 15.5048 17.6079H9.49514C8.82927 17.6079 8.29321 17.0719 8.29321 16.406V13.1007C8.29321 12.4349 8.82927 11.8988 9.49514 11.8988Z" stroke="#DC510A" stroke-width="2"/>
</g>
<defs>
<clipPath id="clip0_453_1244">
<rect width="25" height="25" fill="white"/>
</clipPath>
</defs>
</svg>
