<svg width="25" height="25" viewBox="0 0 32 32" fill="none" xmlns="http://www.w3.org/2000/svg">
    <path d="M15.2115 16.005H4.35535H15.2115ZM4.04763 17.5569L2.25405 23.4C1.27172 26.6002 0.780557 28.2003 1.13304 29.1855C1.43913 30.0413 2.09656 30.69 2.90779 30.9371C3.84194 31.2213 5.25287 30.5288 8.07473 29.1441L26.1655 20.2657C28.9198 18.9139 30.297 18.2381 30.7226 17.2992C31.0925 16.4835 31.0925 15.5262 30.7226 14.7105C30.297 13.7718 28.9198 13.0959 26.1655 11.7441L8.04353 2.85052C5.23016 1.46984 3.8235 0.779486 2.89028 1.06269C2.07981 1.30862 1.42245 1.95564 1.1153 2.80976C0.761599 3.79326 1.24752 5.38988 2.21937 8.58313L4.05112 14.6019C4.21802 15.1503 4.30149 15.4246 4.33443 15.705C4.36367 15.9539 4.36336 16.2059 4.33355 16.4547C4.29994 16.735 4.21584 17.0089 4.04763 17.5569Z" fill="#DC510A"/>
    <path d="M15.2115 16.005H4.35535M4.04763 17.5569L2.25405 23.4C1.27172 26.6002 0.780557 28.2003 1.13304 29.1855C1.43913 30.0413 2.09656 30.69 2.90779 30.9371C3.84194 31.2213 5.25287 30.5288 8.07473 29.1441L26.1655 20.2657C28.9198 18.9139 30.297 18.2381 30.7226 17.2992C31.0925 16.4835 31.0925 15.5262 30.7226 14.7105C30.297 13.7718 28.9198 13.0959 26.1655 11.7441L8.04353 2.85052C5.23016 1.46984 3.8235 0.779486 2.89028 1.06269C2.07981 1.30862 1.42245 1.95564 1.1153 2.80976C0.761599 3.79326 1.24752 5.38988 2.21937 8.58313L4.05112 14.6019C4.21802 15.1503 4.30149 15.4246 4.33443 15.705C4.36367 15.9539 4.36336 16.2059 4.33355 16.4547C4.29994 16.735 4.21584 17.0089 4.04763 17.5569Z" stroke="white" stroke-linecap="round" stroke-linejoin="round"/>
</svg>