<svg width="30" height="30" viewBox="0 0 30 30" fill="none" xmlns="http://www.w3.org/2000/svg">
<path d="M18.4736 1.80664C18.9242 1.00415 19.83 0.79604 20.4863 1.20996L20.4932 1.21387L20.501 1.21875L23.0947 2.79199C23.9767 3.32619 24.3239 4.57313 23.7822 5.57812C23.0103 7.00604 22.833 8.51421 23.498 9.73242C24.1743 10.971 25.5399 11.582 27.1367 11.582C28.0999 11.5822 28.9893 12.4424 29 13.6104V16.3984C29 17.5669 28.1075 18.418 27.1514 18.418C25.5552 18.418 24.189 19.0291 23.5146 20.2695C22.8514 21.4896 23.0347 22.9978 23.8145 24.4248V24.4258C24.3182 25.35 24.0474 26.5157 23.2842 27.0986L23.125 27.208L20.5312 28.7812L20.5234 28.7861L20.5156 28.79C19.8595 29.2037 18.9546 28.996 18.5039 28.1943L18.3438 27.9014C17.5688 26.4842 16.3984 25.5098 14.9941 25.5098C13.5895 25.5099 12.4238 26.4843 11.6562 27.9014L11.4961 28.1943C11.0454 28.996 10.1405 29.2037 9.48438 28.79L9.47656 28.7861L9.46875 28.7812L6.875 27.208L6.71582 27.0996C5.95293 26.5188 5.67975 25.3641 6.1875 24.4219L6.18652 24.4209C6.9647 22.9949 7.14809 21.4886 6.48535 20.2695C5.81099 19.0291 4.44477 18.418 2.84863 18.418C1.88409 18.418 1 17.5581 1 16.3984V13.6016C1 12.4331 1.89245 11.582 2.84863 11.582C4.44458 11.582 5.81081 10.9711 6.48535 9.7334C7.10803 8.59059 6.98527 7.19528 6.32324 5.85449L6.18359 5.58691C5.68006 4.6441 5.95629 3.48043 6.71582 2.90039L6.875 2.79199L9.46875 1.21875L9.47656 1.21387L9.48438 1.20996C10.1465 0.792558 11.0395 1.01226 11.458 1.79102L11.4609 1.79688L11.626 2.09863C12.4009 3.51577 13.5713 4.49021 14.9756 4.49023C16.3803 4.49023 17.5459 3.51572 18.3135 2.09863L18.4736 1.80664ZM14.9922 8.83496C11.7023 8.83514 9.12012 11.6589 9.12012 15C9.12012 18.3411 11.7023 21.1649 14.9922 21.165C18.2822 21.165 20.8652 18.3412 20.8652 15C20.8652 11.6588 18.2822 8.83496 14.9922 8.83496Z" stroke="#6A6A6A" stroke-width="2"/>
</svg>
